<?xml version="1.0" encoding="utf-8" standalone="no"?>
<!DOCTYPE svg PUBLIC "-//W3C//DTD SVG 1.1//EN"
  "http://www.w3.org/Graphics/SVG/1.1/DTD/svg11.dtd">
<svg height="720pt" version="1.1" viewBox="0 0 720 720" width="720pt" xmlns="http://www.w3.org/2000/svg" xmlns:xlink="http://www.w3.org/1999/xlink">
 <metadata>
  <rdf:RDF xmlns:cc="http://creativecommons.org/ns#" xmlns:dc="http://purl.org/dc/elements/1.1/" xmlns:rdf="http://www.w3.org/1999/02/22-rdf-syntax-ns#">
   <cc:Work>
    <dc:type rdf:resource="http://purl.org/dc/dcmitype/StillImage"/>
    <dc:date>2021-06-10T21:05:01.486763</dc:date>
    <dc:format>image/svg+xml</dc:format>
    <dc:creator>
     <cc:Agent>
      <dc:title>Matplotlib v3.4.2, https://matplotlib.org/</dc:title>
     </cc:Agent>
    </dc:creator>
   </cc:Work>
  </rdf:RDF>
 </metadata>
 <defs>
  <style type="text/css">*{stroke-linecap:butt;stroke-linejoin:round;}</style>
 </defs>
 <g id="figure_1">
  <g id="patch_1">
   <path d="M 0 720 
L 720 720 
L 720 0 
L 0 0 
z
" style="fill:#ffffff;"/>
  </g>
  <g id="axes_1">
   <g id="patch_2">
    <path d="M 90 630 
L 648 630 
L 648 86.4 
L 90 86.4 
z
" style="fill:#eaeaf2;"/>
   </g>
   <g id="matplotlib.axis_1">
    <g id="xtick_1">
     <g id="line2d_1">
      <path clip-path="url(#pd9b1d0eb44)" d="M 114.534166 630 
L 114.534166 86.4 
" style="fill:none;stroke:#ffffff;stroke-linecap:round;"/>
     </g>
     <g id="text_1">
      <!-- 0 -->
      <g style="fill:#262626;" transform="translate(111.034791 647.858281)scale(0.11 -0.11)">
       <defs>
        <path d="M 2034 4250 
Q 1547 4250 1301 3770 
Q 1056 3291 1056 2328 
Q 1056 1369 1301 889 
Q 1547 409 2034 409 
Q 2525 409 2770 889 
Q 3016 1369 3016 2328 
Q 3016 3291 2770 3770 
Q 2525 4250 2034 4250 
z
M 2034 4750 
Q 2819 4750 3233 4129 
Q 3647 3509 3647 2328 
Q 3647 1150 3233 529 
Q 2819 -91 2034 -91 
Q 1250 -91 836 529 
Q 422 1150 422 2328 
Q 422 3509 836 4129 
Q 1250 4750 2034 4750 
z
" id="DejaVuSans-30" transform="scale(0.015625)"/>
       </defs>
       <use xlink:href="#DejaVuSans-30"/>
      </g>
     </g>
    </g>
    <g id="xtick_2">
     <g id="line2d_2">
      <path clip-path="url(#pd9b1d0eb44)" d="M 218.217912 630 
L 218.217912 86.4 
" style="fill:none;stroke:#ffffff;stroke-linecap:round;"/>
     </g>
     <g id="text_2">
      <!-- 2000 -->
      <g style="fill:#262626;" transform="translate(204.220412 647.858281)scale(0.11 -0.11)">
       <defs>
        <path d="M 1228 531 
L 3431 531 
L 3431 0 
L 469 0 
L 469 531 
Q 828 903 1448 1529 
Q 2069 2156 2228 2338 
Q 2531 2678 2651 2914 
Q 2772 3150 2772 3378 
Q 2772 3750 2511 3984 
Q 2250 4219 1831 4219 
Q 1534 4219 1204 4116 
Q 875 4013 500 3803 
L 500 4441 
Q 881 4594 1212 4672 
Q 1544 4750 1819 4750 
Q 2544 4750 2975 4387 
Q 3406 4025 3406 3419 
Q 3406 3131 3298 2873 
Q 3191 2616 2906 2266 
Q 2828 2175 2409 1742 
Q 1991 1309 1228 531 
z
" id="DejaVuSans-32" transform="scale(0.015625)"/>
       </defs>
       <use xlink:href="#DejaVuSans-32"/>
       <use x="63.623047" xlink:href="#DejaVuSans-30"/>
       <use x="127.246094" xlink:href="#DejaVuSans-30"/>
       <use x="190.869141" xlink:href="#DejaVuSans-30"/>
      </g>
     </g>
    </g>
    <g id="xtick_3">
     <g id="line2d_3">
      <path clip-path="url(#pd9b1d0eb44)" d="M 321.901658 630 
L 321.901658 86.4 
" style="fill:none;stroke:#ffffff;stroke-linecap:round;"/>
     </g>
     <g id="text_3">
      <!-- 4000 -->
      <g style="fill:#262626;" transform="translate(307.904158 647.858281)scale(0.11 -0.11)">
       <defs>
        <path d="M 2419 4116 
L 825 1625 
L 2419 1625 
L 2419 4116 
z
M 2253 4666 
L 3047 4666 
L 3047 1625 
L 3713 1625 
L 3713 1100 
L 3047 1100 
L 3047 0 
L 2419 0 
L 2419 1100 
L 313 1100 
L 313 1709 
L 2253 4666 
z
" id="DejaVuSans-34" transform="scale(0.015625)"/>
       </defs>
       <use xlink:href="#DejaVuSans-34"/>
       <use x="63.623047" xlink:href="#DejaVuSans-30"/>
       <use x="127.246094" xlink:href="#DejaVuSans-30"/>
       <use x="190.869141" xlink:href="#DejaVuSans-30"/>
      </g>
     </g>
    </g>
    <g id="xtick_4">
     <g id="line2d_4">
      <path clip-path="url(#pd9b1d0eb44)" d="M 425.585404 630 
L 425.585404 86.4 
" style="fill:none;stroke:#ffffff;stroke-linecap:round;"/>
     </g>
     <g id="text_4">
      <!-- 6000 -->
      <g style="fill:#262626;" transform="translate(411.587904 647.858281)scale(0.11 -0.11)">
       <defs>
        <path d="M 2113 2584 
Q 1688 2584 1439 2293 
Q 1191 2003 1191 1497 
Q 1191 994 1439 701 
Q 1688 409 2113 409 
Q 2538 409 2786 701 
Q 3034 994 3034 1497 
Q 3034 2003 2786 2293 
Q 2538 2584 2113 2584 
z
M 3366 4563 
L 3366 3988 
Q 3128 4100 2886 4159 
Q 2644 4219 2406 4219 
Q 1781 4219 1451 3797 
Q 1122 3375 1075 2522 
Q 1259 2794 1537 2939 
Q 1816 3084 2150 3084 
Q 2853 3084 3261 2657 
Q 3669 2231 3669 1497 
Q 3669 778 3244 343 
Q 2819 -91 2113 -91 
Q 1303 -91 875 529 
Q 447 1150 447 2328 
Q 447 3434 972 4092 
Q 1497 4750 2381 4750 
Q 2619 4750 2861 4703 
Q 3103 4656 3366 4563 
z
" id="DejaVuSans-36" transform="scale(0.015625)"/>
       </defs>
       <use xlink:href="#DejaVuSans-36"/>
       <use x="63.623047" xlink:href="#DejaVuSans-30"/>
       <use x="127.246094" xlink:href="#DejaVuSans-30"/>
       <use x="190.869141" xlink:href="#DejaVuSans-30"/>
      </g>
     </g>
    </g>
    <g id="xtick_5">
     <g id="line2d_5">
      <path clip-path="url(#pd9b1d0eb44)" d="M 529.26915 630 
L 529.26915 86.4 
" style="fill:none;stroke:#ffffff;stroke-linecap:round;"/>
     </g>
     <g id="text_5">
      <!-- 8000 -->
      <g style="fill:#262626;" transform="translate(515.27165 647.858281)scale(0.11 -0.11)">
       <defs>
        <path d="M 2034 2216 
Q 1584 2216 1326 1975 
Q 1069 1734 1069 1313 
Q 1069 891 1326 650 
Q 1584 409 2034 409 
Q 2484 409 2743 651 
Q 3003 894 3003 1313 
Q 3003 1734 2745 1975 
Q 2488 2216 2034 2216 
z
M 1403 2484 
Q 997 2584 770 2862 
Q 544 3141 544 3541 
Q 544 4100 942 4425 
Q 1341 4750 2034 4750 
Q 2731 4750 3128 4425 
Q 3525 4100 3525 3541 
Q 3525 3141 3298 2862 
Q 3072 2584 2669 2484 
Q 3125 2378 3379 2068 
Q 3634 1759 3634 1313 
Q 3634 634 3220 271 
Q 2806 -91 2034 -91 
Q 1263 -91 848 271 
Q 434 634 434 1313 
Q 434 1759 690 2068 
Q 947 2378 1403 2484 
z
M 1172 3481 
Q 1172 3119 1398 2916 
Q 1625 2713 2034 2713 
Q 2441 2713 2670 2916 
Q 2900 3119 2900 3481 
Q 2900 3844 2670 4047 
Q 2441 4250 2034 4250 
Q 1625 4250 1398 4047 
Q 1172 3844 1172 3481 
z
" id="DejaVuSans-38" transform="scale(0.015625)"/>
       </defs>
       <use xlink:href="#DejaVuSans-38"/>
       <use x="63.623047" xlink:href="#DejaVuSans-30"/>
       <use x="127.246094" xlink:href="#DejaVuSans-30"/>
       <use x="190.869141" xlink:href="#DejaVuSans-30"/>
      </g>
     </g>
    </g>
    <g id="xtick_6">
     <g id="line2d_6">
      <path clip-path="url(#pd9b1d0eb44)" d="M 632.952896 630 
L 632.952896 86.4 
" style="fill:none;stroke:#ffffff;stroke-linecap:round;"/>
     </g>
     <g id="text_6">
      <!-- 10000 -->
      <g style="fill:#262626;" transform="translate(615.456021 647.858281)scale(0.11 -0.11)">
       <defs>
        <path d="M 794 531 
L 1825 531 
L 1825 4091 
L 703 3866 
L 703 4441 
L 1819 4666 
L 2450 4666 
L 2450 531 
L 3481 531 
L 3481 0 
L 794 0 
L 794 531 
z
" id="DejaVuSans-31" transform="scale(0.015625)"/>
       </defs>
       <use xlink:href="#DejaVuSans-31"/>
       <use x="63.623047" xlink:href="#DejaVuSans-30"/>
       <use x="127.246094" xlink:href="#DejaVuSans-30"/>
       <use x="190.869141" xlink:href="#DejaVuSans-30"/>
       <use x="254.492188" xlink:href="#DejaVuSans-30"/>
      </g>
     </g>
    </g>
    <g id="text_7">
     <!-- k -->
     <g style="fill:#262626;" transform="translate(365.525625 663.264063)scale(0.12 -0.12)">
      <defs>
       <path d="M 581 4863 
L 1159 4863 
L 1159 1991 
L 2875 3500 
L 3609 3500 
L 1753 1863 
L 3688 0 
L 2938 0 
L 1159 1709 
L 1159 0 
L 581 0 
L 581 4863 
z
" id="DejaVuSans-6b" transform="scale(0.015625)"/>
      </defs>
      <use xlink:href="#DejaVuSans-6b"/>
     </g>
    </g>
   </g>
   <g id="matplotlib.axis_2">
    <g id="ytick_1">
     <g id="line2d_7">
      <path clip-path="url(#pd9b1d0eb44)" d="M 90 605.590625 
L 648 605.590625 
" style="fill:none;stroke:#ffffff;stroke-linecap:round;"/>
     </g>
     <g id="text_8">
      <!-- 0 -->
      <g style="fill:#262626;" transform="translate(73.50125 609.769766)scale(0.11 -0.11)">
       <use xlink:href="#DejaVuSans-30"/>
      </g>
     </g>
    </g>
    <g id="ytick_2">
     <g id="line2d_8">
      <path clip-path="url(#pd9b1d0eb44)" d="M 90 505.685274 
L 648 505.685274 
" style="fill:none;stroke:#ffffff;stroke-linecap:round;"/>
     </g>
     <g id="text_9">
      <!-- 2000 -->
      <g style="fill:#262626;" transform="translate(52.505 509.864415)scale(0.11 -0.11)">
       <use xlink:href="#DejaVuSans-32"/>
       <use x="63.623047" xlink:href="#DejaVuSans-30"/>
       <use x="127.246094" xlink:href="#DejaVuSans-30"/>
       <use x="190.869141" xlink:href="#DejaVuSans-30"/>
      </g>
     </g>
    </g>
    <g id="ytick_3">
     <g id="line2d_9">
      <path clip-path="url(#pd9b1d0eb44)" d="M 90 405.779923 
L 648 405.779923 
" style="fill:none;stroke:#ffffff;stroke-linecap:round;"/>
     </g>
     <g id="text_10">
      <!-- 4000 -->
      <g style="fill:#262626;" transform="translate(52.505 409.959064)scale(0.11 -0.11)">
       <use xlink:href="#DejaVuSans-34"/>
       <use x="63.623047" xlink:href="#DejaVuSans-30"/>
       <use x="127.246094" xlink:href="#DejaVuSans-30"/>
       <use x="190.869141" xlink:href="#DejaVuSans-30"/>
      </g>
     </g>
    </g>
    <g id="ytick_4">
     <g id="line2d_10">
      <path clip-path="url(#pd9b1d0eb44)" d="M 90 305.874572 
L 648 305.874572 
" style="fill:none;stroke:#ffffff;stroke-linecap:round;"/>
     </g>
     <g id="text_11">
      <!-- 6000 -->
      <g style="fill:#262626;" transform="translate(52.505 310.053713)scale(0.11 -0.11)">
       <use xlink:href="#DejaVuSans-36"/>
       <use x="63.623047" xlink:href="#DejaVuSans-30"/>
       <use x="127.246094" xlink:href="#DejaVuSans-30"/>
       <use x="190.869141" xlink:href="#DejaVuSans-30"/>
      </g>
     </g>
    </g>
    <g id="ytick_5">
     <g id="line2d_11">
      <path clip-path="url(#pd9b1d0eb44)" d="M 90 205.969222 
L 648 205.969222 
" style="fill:none;stroke:#ffffff;stroke-linecap:round;"/>
     </g>
     <g id="text_12">
      <!-- 8000 -->
      <g style="fill:#262626;" transform="translate(52.505 210.148362)scale(0.11 -0.11)">
       <use xlink:href="#DejaVuSans-38"/>
       <use x="63.623047" xlink:href="#DejaVuSans-30"/>
       <use x="127.246094" xlink:href="#DejaVuSans-30"/>
       <use x="190.869141" xlink:href="#DejaVuSans-30"/>
      </g>
     </g>
    </g>
    <g id="ytick_6">
     <g id="line2d_12">
      <path clip-path="url(#pd9b1d0eb44)" d="M 90 106.063871 
L 648 106.063871 
" style="fill:none;stroke:#ffffff;stroke-linecap:round;"/>
     </g>
     <g id="text_13">
      <!-- 10000 -->
      <g style="fill:#262626;" transform="translate(45.50625 110.243011)scale(0.11 -0.11)">
       <use xlink:href="#DejaVuSans-31"/>
       <use x="63.623047" xlink:href="#DejaVuSans-30"/>
       <use x="127.246094" xlink:href="#DejaVuSans-30"/>
       <use x="190.869141" xlink:href="#DejaVuSans-30"/>
       <use x="254.492188" xlink:href="#DejaVuSans-30"/>
      </g>
     </g>
    </g>
    <g id="text_14">
     <!-- obtenido -->
     <g style="fill:#262626;" transform="translate(39.010625 384.674062)rotate(-90)scale(0.12 -0.12)">
      <defs>
       <path d="M 1959 3097 
Q 1497 3097 1228 2736 
Q 959 2375 959 1747 
Q 959 1119 1226 758 
Q 1494 397 1959 397 
Q 2419 397 2687 759 
Q 2956 1122 2956 1747 
Q 2956 2369 2687 2733 
Q 2419 3097 1959 3097 
z
M 1959 3584 
Q 2709 3584 3137 3096 
Q 3566 2609 3566 1747 
Q 3566 888 3137 398 
Q 2709 -91 1959 -91 
Q 1206 -91 779 398 
Q 353 888 353 1747 
Q 353 2609 779 3096 
Q 1206 3584 1959 3584 
z
" id="DejaVuSans-6f" transform="scale(0.015625)"/>
       <path d="M 3116 1747 
Q 3116 2381 2855 2742 
Q 2594 3103 2138 3103 
Q 1681 3103 1420 2742 
Q 1159 2381 1159 1747 
Q 1159 1113 1420 752 
Q 1681 391 2138 391 
Q 2594 391 2855 752 
Q 3116 1113 3116 1747 
z
M 1159 2969 
Q 1341 3281 1617 3432 
Q 1894 3584 2278 3584 
Q 2916 3584 3314 3078 
Q 3713 2572 3713 1747 
Q 3713 922 3314 415 
Q 2916 -91 2278 -91 
Q 1894 -91 1617 61 
Q 1341 213 1159 525 
L 1159 0 
L 581 0 
L 581 4863 
L 1159 4863 
L 1159 2969 
z
" id="DejaVuSans-62" transform="scale(0.015625)"/>
       <path d="M 1172 4494 
L 1172 3500 
L 2356 3500 
L 2356 3053 
L 1172 3053 
L 1172 1153 
Q 1172 725 1289 603 
Q 1406 481 1766 481 
L 2356 481 
L 2356 0 
L 1766 0 
Q 1100 0 847 248 
Q 594 497 594 1153 
L 594 3053 
L 172 3053 
L 172 3500 
L 594 3500 
L 594 4494 
L 1172 4494 
z
" id="DejaVuSans-74" transform="scale(0.015625)"/>
       <path d="M 3597 1894 
L 3597 1613 
L 953 1613 
Q 991 1019 1311 708 
Q 1631 397 2203 397 
Q 2534 397 2845 478 
Q 3156 559 3463 722 
L 3463 178 
Q 3153 47 2828 -22 
Q 2503 -91 2169 -91 
Q 1331 -91 842 396 
Q 353 884 353 1716 
Q 353 2575 817 3079 
Q 1281 3584 2069 3584 
Q 2775 3584 3186 3129 
Q 3597 2675 3597 1894 
z
M 3022 2063 
Q 3016 2534 2758 2815 
Q 2500 3097 2075 3097 
Q 1594 3097 1305 2825 
Q 1016 2553 972 2059 
L 3022 2063 
z
" id="DejaVuSans-65" transform="scale(0.015625)"/>
       <path d="M 3513 2113 
L 3513 0 
L 2938 0 
L 2938 2094 
Q 2938 2591 2744 2837 
Q 2550 3084 2163 3084 
Q 1697 3084 1428 2787 
Q 1159 2491 1159 1978 
L 1159 0 
L 581 0 
L 581 3500 
L 1159 3500 
L 1159 2956 
Q 1366 3272 1645 3428 
Q 1925 3584 2291 3584 
Q 2894 3584 3203 3211 
Q 3513 2838 3513 2113 
z
" id="DejaVuSans-6e" transform="scale(0.015625)"/>
       <path d="M 603 3500 
L 1178 3500 
L 1178 0 
L 603 0 
L 603 3500 
z
M 603 4863 
L 1178 4863 
L 1178 4134 
L 603 4134 
L 603 4863 
z
" id="DejaVuSans-69" transform="scale(0.015625)"/>
       <path d="M 2906 2969 
L 2906 4863 
L 3481 4863 
L 3481 0 
L 2906 0 
L 2906 525 
Q 2725 213 2448 61 
Q 2172 -91 1784 -91 
Q 1150 -91 751 415 
Q 353 922 353 1747 
Q 353 2572 751 3078 
Q 1150 3584 1784 3584 
Q 2172 3584 2448 3432 
Q 2725 3281 2906 2969 
z
M 947 1747 
Q 947 1113 1208 752 
Q 1469 391 1925 391 
Q 2381 391 2643 752 
Q 2906 1113 2906 1747 
Q 2906 2381 2643 2742 
Q 2381 3103 1925 3103 
Q 1469 3103 1208 2742 
Q 947 2381 947 1747 
z
" id="DejaVuSans-64" transform="scale(0.015625)"/>
      </defs>
      <use xlink:href="#DejaVuSans-6f"/>
      <use x="61.181641" xlink:href="#DejaVuSans-62"/>
      <use x="124.658203" xlink:href="#DejaVuSans-74"/>
      <use x="163.867188" xlink:href="#DejaVuSans-65"/>
      <use x="225.390625" xlink:href="#DejaVuSans-6e"/>
      <use x="288.769531" xlink:href="#DejaVuSans-69"/>
      <use x="316.552734" xlink:href="#DejaVuSans-64"/>
      <use x="380.029297" xlink:href="#DejaVuSans-6f"/>
     </g>
    </g>
   </g>
   <g id="PathCollection_1">
    <defs>
     <path d="M 0 3 
C 0.795609 3 1.55874 2.683901 2.12132 2.12132 
C 2.683901 1.55874 3 0.795609 3 0 
C 3 -0.795609 2.683901 -1.55874 2.12132 -2.12132 
C 1.55874 -2.683901 0.795609 -3 0 -3 
C -0.795609 -3 -1.55874 -2.683901 -2.12132 -2.12132 
C -2.683901 -1.55874 -3 -0.795609 -3 0 
C -3 0.795609 -2.683901 1.55874 -2.12132 2.12132 
C -1.55874 2.683901 -0.795609 3 0 3 
z
" id="md756f9f3ba" style="stroke:#ffffff;stroke-width:0.48;"/>
    </defs>
    <g clip-path="url(#pd9b1d0eb44)">
     <use style="fill:#4c72b0;stroke:#ffffff;stroke-width:0.48;" x="115.363636" xlink:href="#md756f9f3ba" y="604.641524"/>
     <use style="fill:#4c72b0;stroke:#ffffff;stroke-width:0.48;" x="115.830213" xlink:href="#md756f9f3ba" y="604.141998"/>
     <use style="fill:#4c72b0;stroke:#ffffff;stroke-width:0.48;" x="116.400474" xlink:href="#md756f9f3ba" y="603.542565"/>
     <use style="fill:#4c72b0;stroke:#ffffff;stroke-width:0.48;" x="117.074418" xlink:href="#md756f9f3ba" y="602.843228"/>
     <use style="fill:#4c72b0;stroke:#ffffff;stroke-width:0.48;" x="117.852046" xlink:href="#md756f9f3ba" y="602.043985"/>
     <use style="fill:#4c72b0;stroke:#ffffff;stroke-width:0.48;" x="118.733358" xlink:href="#md756f9f3ba" y="601.144837"/>
     <use style="fill:#4c72b0;stroke:#ffffff;stroke-width:0.48;" x="119.718354" xlink:href="#md756f9f3ba" y="600.145784"/>
     <use style="fill:#4c72b0;stroke:#ffffff;stroke-width:0.48;" x="120.807033" xlink:href="#md756f9f3ba" y="599.046825"/>
     <use style="fill:#4c72b0;stroke:#ffffff;stroke-width:0.48;" x="121.999396" xlink:href="#md756f9f3ba" y="597.84796"/>
     <use style="fill:#4c72b0;stroke:#ffffff;stroke-width:0.48;" x="123.295443" xlink:href="#md756f9f3ba" y="596.549191"/>
     <use style="fill:#4c72b0;stroke:#ffffff;stroke-width:0.48;" x="124.695174" xlink:href="#md756f9f3ba" y="595.150516"/>
     <use style="fill:#4c72b0;stroke:#ffffff;stroke-width:0.48;" x="126.198588" xlink:href="#md756f9f3ba" y="593.651936"/>
     <use style="fill:#4c72b0;stroke:#ffffff;stroke-width:0.48;" x="127.805686" xlink:href="#md756f9f3ba" y="592.05345"/>
     <use style="fill:#4c72b0;stroke:#ffffff;stroke-width:0.48;" x="129.516468" xlink:href="#md756f9f3ba" y="590.355059"/>
     <use style="fill:#4c72b0;stroke:#ffffff;stroke-width:0.48;" x="131.330933" xlink:href="#md756f9f3ba" y="588.556763"/>
     <use style="fill:#4c72b0;stroke:#ffffff;stroke-width:0.48;" x="133.249083" xlink:href="#md756f9f3ba" y="586.658561"/>
     <use style="fill:#4c72b0;stroke:#ffffff;stroke-width:0.48;" x="135.270916" xlink:href="#md756f9f3ba" y="584.660454"/>
     <use style="fill:#4c72b0;stroke:#ffffff;stroke-width:0.48;" x="137.396432" xlink:href="#md756f9f3ba" y="582.562442"/>
     <use style="fill:#4c72b0;stroke:#ffffff;stroke-width:0.48;" x="139.625633" xlink:href="#md756f9f3ba" y="580.364524"/>
     <use style="fill:#4c72b0;stroke:#ffffff;stroke-width:0.48;" x="141.958517" xlink:href="#md756f9f3ba" y="578.066701"/>
     <use style="fill:#4c72b0;stroke:#ffffff;stroke-width:0.48;" x="144.395085" xlink:href="#md756f9f3ba" y="575.668973"/>
     <use style="fill:#4c72b0;stroke:#ffffff;stroke-width:0.48;" x="146.935337" xlink:href="#md756f9f3ba" y="573.171339"/>
     <use style="fill:#4c72b0;stroke:#ffffff;stroke-width:0.48;" x="149.579273" xlink:href="#md756f9f3ba" y="570.5738"/>
     <use style="fill:#4c72b0;stroke:#ffffff;stroke-width:0.48;" x="152.326892" xlink:href="#md756f9f3ba" y="567.876355"/>
     <use style="fill:#4c72b0;stroke:#ffffff;stroke-width:0.48;" x="155.178195" xlink:href="#md756f9f3ba" y="565.079005"/>
     <use style="fill:#4c72b0;stroke:#ffffff;stroke-width:0.48;" x="158.133182" xlink:href="#md756f9f3ba" y="562.18175"/>
     <use style="fill:#4c72b0;stroke:#ffffff;stroke-width:0.48;" x="161.191852" xlink:href="#md756f9f3ba" y="559.18459"/>
     <use style="fill:#4c72b0;stroke:#ffffff;stroke-width:0.48;" x="164.354206" xlink:href="#md756f9f3ba" y="556.087524"/>
     <use style="fill:#4c72b0;stroke:#ffffff;stroke-width:0.48;" x="167.620244" xlink:href="#md756f9f3ba" y="552.890553"/>
     <use style="fill:#4c72b0;stroke:#ffffff;stroke-width:0.48;" x="170.989966" xlink:href="#md756f9f3ba" y="549.593676"/>
     <use style="fill:#4c72b0;stroke:#ffffff;stroke-width:0.48;" x="174.463372" xlink:href="#md756f9f3ba" y="546.196894"/>
     <use style="fill:#4c72b0;stroke:#ffffff;stroke-width:0.48;" x="178.040461" xlink:href="#md756f9f3ba" y="542.700207"/>
     <use style="fill:#4c72b0;stroke:#ffffff;stroke-width:0.48;" x="181.721234" xlink:href="#md756f9f3ba" y="539.103614"/>
     <use style="fill:#4c72b0;stroke:#ffffff;stroke-width:0.48;" x="185.505691" xlink:href="#md756f9f3ba" y="535.407116"/>
     <use style="fill:#4c72b0;stroke:#ffffff;stroke-width:0.48;" x="189.393831" xlink:href="#md756f9f3ba" y="531.610713"/>
     <use style="fill:#4c72b0;stroke:#ffffff;stroke-width:0.48;" x="193.385655" xlink:href="#md756f9f3ba" y="527.714404"/>
     <use style="fill:#4c72b0;stroke:#ffffff;stroke-width:0.48;" x="197.481163" xlink:href="#md756f9f3ba" y="523.71819"/>
     <use style="fill:#4c72b0;stroke:#ffffff;stroke-width:0.48;" x="201.680355" xlink:href="#md756f9f3ba" y="519.622071"/>
     <use style="fill:#4c72b0;stroke:#ffffff;stroke-width:0.48;" x="205.98323" xlink:href="#md756f9f3ba" y="515.426046"/>
     <use style="fill:#4c72b0;stroke:#ffffff;stroke-width:0.48;" x="210.38979" xlink:href="#md756f9f3ba" y="511.130116"/>
     <use style="fill:#4c72b0;stroke:#ffffff;stroke-width:0.48;" x="214.900033" xlink:href="#md756f9f3ba" y="506.73428"/>
     <use style="fill:#4c72b0;stroke:#ffffff;stroke-width:0.48;" x="219.513959" xlink:href="#md756f9f3ba" y="502.23854"/>
     <use style="fill:#4c72b0;stroke:#ffffff;stroke-width:0.48;" x="224.23157" xlink:href="#md756f9f3ba" y="497.642894"/>
     <use style="fill:#4c72b0;stroke:#ffffff;stroke-width:0.48;" x="229.052864" xlink:href="#md756f9f3ba" y="492.947342"/>
     <use style="fill:#4c72b0;stroke:#ffffff;stroke-width:0.48;" x="233.977842" xlink:href="#md756f9f3ba" y="488.151885"/>
     <use style="fill:#4c72b0;stroke:#ffffff;stroke-width:0.48;" x="239.006503" xlink:href="#md756f9f3ba" y="483.256523"/>
     <use style="fill:#4c72b0;stroke:#ffffff;stroke-width:0.48;" x="244.138849" xlink:href="#md756f9f3ba" y="478.261255"/>
     <use style="fill:#4c72b0;stroke:#ffffff;stroke-width:0.48;" x="249.374878" xlink:href="#md756f9f3ba" y="473.166083"/>
     <use style="fill:#4c72b0;stroke:#ffffff;stroke-width:0.48;" x="254.714591" xlink:href="#md756f9f3ba" y="467.971004"/>
     <use style="fill:#4c72b0;stroke:#ffffff;stroke-width:0.48;" x="260.157988" xlink:href="#md756f9f3ba" y="462.676021"/>
     <use style="fill:#4c72b0;stroke:#ffffff;stroke-width:0.48;" x="265.705068" xlink:href="#md756f9f3ba" y="457.281132"/>
     <use style="fill:#4c72b0;stroke:#ffffff;stroke-width:0.48;" x="271.355832" xlink:href="#md756f9f3ba" y="451.786337"/>
     <use style="fill:#4c72b0;stroke:#ffffff;stroke-width:0.48;" x="277.11028" xlink:href="#md756f9f3ba" y="446.191638"/>
     <use style="fill:#4c72b0;stroke:#ffffff;stroke-width:0.48;" x="282.968412" xlink:href="#md756f9f3ba" y="440.497033"/>
     <use style="fill:#4c72b0;stroke:#ffffff;stroke-width:0.48;" x="288.930227" xlink:href="#md756f9f3ba" y="434.702522"/>
     <use style="fill:#4c72b0;stroke:#ffffff;stroke-width:0.48;" x="294.995726" xlink:href="#md756f9f3ba" y="428.808107"/>
     <use style="fill:#4c72b0;stroke:#ffffff;stroke-width:0.48;" x="301.164909" xlink:href="#md756f9f3ba" y="422.813786"/>
     <use style="fill:#4c72b0;stroke:#ffffff;stroke-width:0.48;" x="307.437776" xlink:href="#md756f9f3ba" y="416.719559"/>
     <use style="fill:#4c72b0;stroke:#ffffff;stroke-width:0.48;" x="313.814326" xlink:href="#md756f9f3ba" y="410.525428"/>
     <use style="fill:#4c72b0;stroke:#ffffff;stroke-width:0.48;" x="320.29456" xlink:href="#md756f9f3ba" y="404.23139"/>
     <use style="fill:#4c72b0;stroke:#ffffff;stroke-width:0.48;" x="326.878478" xlink:href="#md756f9f3ba" y="397.837448"/>
     <use style="fill:#4c72b0;stroke:#ffffff;stroke-width:0.48;" x="333.56608" xlink:href="#md756f9f3ba" y="391.3436"/>
     <use style="fill:#4c72b0;stroke:#ffffff;stroke-width:0.48;" x="340.357365" xlink:href="#md756f9f3ba" y="384.749847"/>
     <use style="fill:#4c72b0;stroke:#ffffff;stroke-width:0.48;" x="347.252334" xlink:href="#md756f9f3ba" y="378.056188"/>
     <use style="fill:#4c72b0;stroke:#ffffff;stroke-width:0.48;" x="354.250987" xlink:href="#md756f9f3ba" y="371.262625"/>
     <use style="fill:#4c72b0;stroke:#ffffff;stroke-width:0.48;" x="361.353324" xlink:href="#md756f9f3ba" y="364.369155"/>
     <use style="fill:#4c72b0;stroke:#ffffff;stroke-width:0.48;" x="368.559344" xlink:href="#md756f9f3ba" y="357.375781"/>
     <use style="fill:#4c72b0;stroke:#ffffff;stroke-width:0.48;" x="375.869048" xlink:href="#md756f9f3ba" y="350.282501"/>
     <use style="fill:#4c72b0;stroke:#ffffff;stroke-width:0.48;" x="383.282436" xlink:href="#md756f9f3ba" y="343.089316"/>
     <use style="fill:#4c72b0;stroke:#ffffff;stroke-width:0.48;" x="390.799508" xlink:href="#md756f9f3ba" y="335.796225"/>
     <use style="fill:#4c72b0;stroke:#ffffff;stroke-width:0.48;" x="398.420263" xlink:href="#md756f9f3ba" y="328.403229"/>
     <use style="fill:#4c72b0;stroke:#ffffff;stroke-width:0.48;" x="406.144702" xlink:href="#md756f9f3ba" y="320.910328"/>
     <use style="fill:#4c72b0;stroke:#ffffff;stroke-width:0.48;" x="413.972825" xlink:href="#md756f9f3ba" y="313.317521"/>
     <use style="fill:#4c72b0;stroke:#ffffff;stroke-width:0.48;" x="421.904631" xlink:href="#md756f9f3ba" y="305.624809"/>
     <use style="fill:#4c72b0;stroke:#ffffff;stroke-width:0.48;" x="429.940122" xlink:href="#md756f9f3ba" y="297.832192"/>
     <use style="fill:#4c72b0;stroke:#ffffff;stroke-width:0.48;" x="438.079296" xlink:href="#md756f9f3ba" y="289.939669"/>
     <use style="fill:#4c72b0;stroke:#ffffff;stroke-width:0.48;" x="446.322154" xlink:href="#md756f9f3ba" y="281.947241"/>
     <use style="fill:#4c72b0;stroke:#ffffff;stroke-width:0.48;" x="454.668695" xlink:href="#md756f9f3ba" y="273.854908"/>
     <use style="fill:#4c72b0;stroke:#ffffff;stroke-width:0.48;" x="463.11892" xlink:href="#md756f9f3ba" y="265.662669"/>
     <use style="fill:#4c72b0;stroke:#ffffff;stroke-width:0.48;" x="471.672829" xlink:href="#md756f9f3ba" y="257.370525"/>
     <use style="fill:#4c72b0;stroke:#ffffff;stroke-width:0.48;" x="480.330422" xlink:href="#md756f9f3ba" y="248.978475"/>
     <use style="fill:#4c72b0;stroke:#ffffff;stroke-width:0.48;" x="489.091699" xlink:href="#md756f9f3ba" y="240.48652"/>
     <use style="fill:#4c72b0;stroke:#ffffff;stroke-width:0.48;" x="497.956659" xlink:href="#md756f9f3ba" y="231.89466"/>
     <use style="fill:#4c72b0;stroke:#ffffff;stroke-width:0.48;" x="506.925303" xlink:href="#md756f9f3ba" y="223.202895"/>
     <use style="fill:#4c72b0;stroke:#ffffff;stroke-width:0.48;" x="515.997631" xlink:href="#md756f9f3ba" y="214.411224"/>
     <use style="fill:#4c72b0;stroke:#ffffff;stroke-width:0.48;" x="525.173642" xlink:href="#md756f9f3ba" y="205.519648"/>
     <use style="fill:#4c72b0;stroke:#ffffff;stroke-width:0.48;" x="534.453338" xlink:href="#md756f9f3ba" y="196.528166"/>
     <use style="fill:#4c72b0;stroke:#ffffff;stroke-width:0.48;" x="543.836717" xlink:href="#md756f9f3ba" y="187.436779"/>
     <use style="fill:#4c72b0;stroke:#ffffff;stroke-width:0.48;" x="553.323779" xlink:href="#md756f9f3ba" y="178.245487"/>
     <use style="fill:#4c72b0;stroke:#ffffff;stroke-width:0.48;" x="562.914526" xlink:href="#md756f9f3ba" y="168.954289"/>
     <use style="fill:#4c72b0;stroke:#ffffff;stroke-width:0.48;" x="572.608956" xlink:href="#md756f9f3ba" y="159.563186"/>
     <use style="fill:#4c72b0;stroke:#ffffff;stroke-width:0.48;" x="582.40707" xlink:href="#md756f9f3ba" y="150.072178"/>
     <use style="fill:#4c72b0;stroke:#ffffff;stroke-width:0.48;" x="592.308868" xlink:href="#md756f9f3ba" y="140.481264"/>
     <use style="fill:#4c72b0;stroke:#ffffff;stroke-width:0.48;" x="602.314349" xlink:href="#md756f9f3ba" y="130.790445"/>
     <use style="fill:#4c72b0;stroke:#ffffff;stroke-width:0.48;" x="612.423515" xlink:href="#md756f9f3ba" y="120.999721"/>
     <use style="fill:#4c72b0;stroke:#ffffff;stroke-width:0.48;" x="622.636364" xlink:href="#md756f9f3ba" y="111.109091"/>
    </g>
   </g>
   <g id="PathCollection_2">
    <defs>
     <path d="M 0 3 
C 0.795609 3 1.55874 2.683901 2.12132 2.12132 
C 2.683901 1.55874 3 0.795609 3 0 
C 3 -0.795609 2.683901 -1.55874 2.12132 -2.12132 
C 1.55874 -2.683901 0.795609 -3 0 -3 
C -0.795609 -3 -1.55874 -2.683901 -2.12132 -2.12132 
C -2.683901 -1.55874 -3 -0.795609 -3 0 
C -3 0.795609 -2.683901 1.55874 -2.12132 2.12132 
C -1.55874 2.683901 -0.795609 3 0 3 
z
" id="me6f8346147" style="stroke:#ffffff;stroke-width:0.48;"/>
    </defs>
    <g clip-path="url(#pd9b1d0eb44)">
     <use style="fill:#dd8452;stroke:#ffffff;stroke-width:0.48;" x="115.363636" xlink:href="#me6f8346147" y="605.290909"/>
     <use style="fill:#dd8452;stroke:#ffffff;stroke-width:0.48;" x="115.830213" xlink:href="#me6f8346147" y="605.240956"/>
     <use style="fill:#dd8452;stroke:#ffffff;stroke-width:0.48;" x="116.400474" xlink:href="#me6f8346147" y="605.191004"/>
     <use style="fill:#dd8452;stroke:#ffffff;stroke-width:0.48;" x="117.074418" xlink:href="#me6f8346147" y="605.141051"/>
     <use style="fill:#dd8452;stroke:#ffffff;stroke-width:0.48;" x="117.852046" xlink:href="#me6f8346147" y="605.091098"/>
     <use style="fill:#dd8452;stroke:#ffffff;stroke-width:0.48;" x="118.733358" xlink:href="#me6f8346147" y="605.041146"/>
     <use style="fill:#dd8452;stroke:#ffffff;stroke-width:0.48;" x="119.718354" xlink:href="#me6f8346147" y="604.991193"/>
     <use style="fill:#dd8452;stroke:#ffffff;stroke-width:0.48;" x="120.807033" xlink:href="#me6f8346147" y="604.94124"/>
     <use style="fill:#dd8452;stroke:#ffffff;stroke-width:0.48;" x="121.999396" xlink:href="#me6f8346147" y="604.891288"/>
     <use style="fill:#dd8452;stroke:#ffffff;stroke-width:0.48;" x="123.295443" xlink:href="#me6f8346147" y="604.841335"/>
     <use style="fill:#dd8452;stroke:#ffffff;stroke-width:0.48;" x="124.695174" xlink:href="#me6f8346147" y="604.791382"/>
     <use style="fill:#dd8452;stroke:#ffffff;stroke-width:0.48;" x="126.198588" xlink:href="#me6f8346147" y="604.74143"/>
     <use style="fill:#dd8452;stroke:#ffffff;stroke-width:0.48;" x="127.805686" xlink:href="#me6f8346147" y="604.691477"/>
     <use style="fill:#dd8452;stroke:#ffffff;stroke-width:0.48;" x="129.516468" xlink:href="#me6f8346147" y="604.641524"/>
     <use style="fill:#dd8452;stroke:#ffffff;stroke-width:0.48;" x="131.330933" xlink:href="#me6f8346147" y="604.591572"/>
     <use style="fill:#dd8452;stroke:#ffffff;stroke-width:0.48;" x="133.249083" xlink:href="#me6f8346147" y="604.541619"/>
     <use style="fill:#dd8452;stroke:#ffffff;stroke-width:0.48;" x="135.270916" xlink:href="#me6f8346147" y="604.491666"/>
     <use style="fill:#dd8452;stroke:#ffffff;stroke-width:0.48;" x="137.396432" xlink:href="#me6f8346147" y="604.441714"/>
     <use style="fill:#dd8452;stroke:#ffffff;stroke-width:0.48;" x="139.625633" xlink:href="#me6f8346147" y="604.391761"/>
     <use style="fill:#dd8452;stroke:#ffffff;stroke-width:0.48;" x="141.958517" xlink:href="#me6f8346147" y="604.341808"/>
     <use style="fill:#dd8452;stroke:#ffffff;stroke-width:0.48;" x="144.395085" xlink:href="#me6f8346147" y="604.291856"/>
     <use style="fill:#dd8452;stroke:#ffffff;stroke-width:0.48;" x="146.935337" xlink:href="#me6f8346147" y="604.241903"/>
     <use style="fill:#dd8452;stroke:#ffffff;stroke-width:0.48;" x="149.579273" xlink:href="#me6f8346147" y="604.19195"/>
     <use style="fill:#dd8452;stroke:#ffffff;stroke-width:0.48;" x="152.326892" xlink:href="#me6f8346147" y="604.141998"/>
     <use style="fill:#dd8452;stroke:#ffffff;stroke-width:0.48;" x="155.178195" xlink:href="#me6f8346147" y="604.092045"/>
     <use style="fill:#dd8452;stroke:#ffffff;stroke-width:0.48;" x="158.133182" xlink:href="#me6f8346147" y="604.042092"/>
     <use style="fill:#dd8452;stroke:#ffffff;stroke-width:0.48;" x="161.191852" xlink:href="#me6f8346147" y="603.99214"/>
     <use style="fill:#dd8452;stroke:#ffffff;stroke-width:0.48;" x="164.354206" xlink:href="#me6f8346147" y="603.942187"/>
     <use style="fill:#dd8452;stroke:#ffffff;stroke-width:0.48;" x="167.620244" xlink:href="#me6f8346147" y="603.892234"/>
     <use style="fill:#dd8452;stroke:#ffffff;stroke-width:0.48;" x="170.989966" xlink:href="#me6f8346147" y="603.842282"/>
     <use style="fill:#dd8452;stroke:#ffffff;stroke-width:0.48;" x="174.463372" xlink:href="#me6f8346147" y="603.792329"/>
     <use style="fill:#dd8452;stroke:#ffffff;stroke-width:0.48;" x="178.040461" xlink:href="#me6f8346147" y="603.742376"/>
     <use style="fill:#dd8452;stroke:#ffffff;stroke-width:0.48;" x="181.721234" xlink:href="#me6f8346147" y="603.692423"/>
     <use style="fill:#dd8452;stroke:#ffffff;stroke-width:0.48;" x="185.505691" xlink:href="#me6f8346147" y="603.642471"/>
     <use style="fill:#dd8452;stroke:#ffffff;stroke-width:0.48;" x="189.393831" xlink:href="#me6f8346147" y="603.592518"/>
     <use style="fill:#dd8452;stroke:#ffffff;stroke-width:0.48;" x="193.385655" xlink:href="#me6f8346147" y="603.542565"/>
     <use style="fill:#dd8452;stroke:#ffffff;stroke-width:0.48;" x="197.481163" xlink:href="#me6f8346147" y="603.492613"/>
     <use style="fill:#dd8452;stroke:#ffffff;stroke-width:0.48;" x="201.680355" xlink:href="#me6f8346147" y="603.44266"/>
     <use style="fill:#dd8452;stroke:#ffffff;stroke-width:0.48;" x="205.98323" xlink:href="#me6f8346147" y="603.392707"/>
     <use style="fill:#dd8452;stroke:#ffffff;stroke-width:0.48;" x="210.38979" xlink:href="#me6f8346147" y="603.342755"/>
     <use style="fill:#dd8452;stroke:#ffffff;stroke-width:0.48;" x="214.900033" xlink:href="#me6f8346147" y="603.292802"/>
     <use style="fill:#dd8452;stroke:#ffffff;stroke-width:0.48;" x="219.513959" xlink:href="#me6f8346147" y="603.242849"/>
     <use style="fill:#dd8452;stroke:#ffffff;stroke-width:0.48;" x="224.23157" xlink:href="#me6f8346147" y="603.192897"/>
     <use style="fill:#dd8452;stroke:#ffffff;stroke-width:0.48;" x="229.052864" xlink:href="#me6f8346147" y="603.142944"/>
     <use style="fill:#dd8452;stroke:#ffffff;stroke-width:0.48;" x="233.977842" xlink:href="#me6f8346147" y="603.092991"/>
     <use style="fill:#dd8452;stroke:#ffffff;stroke-width:0.48;" x="239.006503" xlink:href="#me6f8346147" y="603.043039"/>
     <use style="fill:#dd8452;stroke:#ffffff;stroke-width:0.48;" x="244.138849" xlink:href="#me6f8346147" y="602.993086"/>
     <use style="fill:#dd8452;stroke:#ffffff;stroke-width:0.48;" x="249.374878" xlink:href="#me6f8346147" y="602.943133"/>
     <use style="fill:#dd8452;stroke:#ffffff;stroke-width:0.48;" x="254.714591" xlink:href="#me6f8346147" y="602.893181"/>
     <use style="fill:#dd8452;stroke:#ffffff;stroke-width:0.48;" x="260.157988" xlink:href="#me6f8346147" y="602.843228"/>
     <use style="fill:#dd8452;stroke:#ffffff;stroke-width:0.48;" x="265.705068" xlink:href="#me6f8346147" y="602.793275"/>
     <use style="fill:#dd8452;stroke:#ffffff;stroke-width:0.48;" x="271.355832" xlink:href="#me6f8346147" y="602.743323"/>
     <use style="fill:#dd8452;stroke:#ffffff;stroke-width:0.48;" x="277.11028" xlink:href="#me6f8346147" y="602.69337"/>
     <use style="fill:#dd8452;stroke:#ffffff;stroke-width:0.48;" x="282.968412" xlink:href="#me6f8346147" y="602.643417"/>
     <use style="fill:#dd8452;stroke:#ffffff;stroke-width:0.48;" x="288.930227" xlink:href="#me6f8346147" y="602.593465"/>
     <use style="fill:#dd8452;stroke:#ffffff;stroke-width:0.48;" x="294.995726" xlink:href="#me6f8346147" y="602.543512"/>
     <use style="fill:#dd8452;stroke:#ffffff;stroke-width:0.48;" x="301.164909" xlink:href="#me6f8346147" y="602.493559"/>
     <use style="fill:#dd8452;stroke:#ffffff;stroke-width:0.48;" x="307.437776" xlink:href="#me6f8346147" y="602.443607"/>
     <use style="fill:#dd8452;stroke:#ffffff;stroke-width:0.48;" x="313.814326" xlink:href="#me6f8346147" y="602.393654"/>
     <use style="fill:#dd8452;stroke:#ffffff;stroke-width:0.48;" x="320.29456" xlink:href="#me6f8346147" y="602.343701"/>
     <use style="fill:#dd8452;stroke:#ffffff;stroke-width:0.48;" x="326.878478" xlink:href="#me6f8346147" y="602.293749"/>
     <use style="fill:#dd8452;stroke:#ffffff;stroke-width:0.48;" x="333.56608" xlink:href="#me6f8346147" y="602.243796"/>
     <use style="fill:#dd8452;stroke:#ffffff;stroke-width:0.48;" x="340.357365" xlink:href="#me6f8346147" y="602.193843"/>
     <use style="fill:#dd8452;stroke:#ffffff;stroke-width:0.48;" x="347.252334" xlink:href="#me6f8346147" y="602.143891"/>
     <use style="fill:#dd8452;stroke:#ffffff;stroke-width:0.48;" x="354.250987" xlink:href="#me6f8346147" y="602.093938"/>
     <use style="fill:#dd8452;stroke:#ffffff;stroke-width:0.48;" x="361.353324" xlink:href="#me6f8346147" y="602.043985"/>
     <use style="fill:#dd8452;stroke:#ffffff;stroke-width:0.48;" x="368.559344" xlink:href="#me6f8346147" y="601.994033"/>
     <use style="fill:#dd8452;stroke:#ffffff;stroke-width:0.48;" x="375.869048" xlink:href="#me6f8346147" y="601.94408"/>
     <use style="fill:#dd8452;stroke:#ffffff;stroke-width:0.48;" x="383.282436" xlink:href="#me6f8346147" y="601.894127"/>
     <use style="fill:#dd8452;stroke:#ffffff;stroke-width:0.48;" x="390.799508" xlink:href="#me6f8346147" y="601.844174"/>
     <use style="fill:#dd8452;stroke:#ffffff;stroke-width:0.48;" x="398.420263" xlink:href="#me6f8346147" y="601.794222"/>
     <use style="fill:#dd8452;stroke:#ffffff;stroke-width:0.48;" x="406.144702" xlink:href="#me6f8346147" y="601.744269"/>
     <use style="fill:#dd8452;stroke:#ffffff;stroke-width:0.48;" x="413.972825" xlink:href="#me6f8346147" y="601.694316"/>
     <use style="fill:#dd8452;stroke:#ffffff;stroke-width:0.48;" x="421.904631" xlink:href="#me6f8346147" y="601.644364"/>
     <use style="fill:#dd8452;stroke:#ffffff;stroke-width:0.48;" x="429.940122" xlink:href="#me6f8346147" y="601.594411"/>
     <use style="fill:#dd8452;stroke:#ffffff;stroke-width:0.48;" x="438.079296" xlink:href="#me6f8346147" y="601.544458"/>
     <use style="fill:#dd8452;stroke:#ffffff;stroke-width:0.48;" x="446.322154" xlink:href="#me6f8346147" y="601.494506"/>
     <use style="fill:#dd8452;stroke:#ffffff;stroke-width:0.48;" x="454.668695" xlink:href="#me6f8346147" y="601.444553"/>
     <use style="fill:#dd8452;stroke:#ffffff;stroke-width:0.48;" x="463.11892" xlink:href="#me6f8346147" y="601.3946"/>
     <use style="fill:#dd8452;stroke:#ffffff;stroke-width:0.48;" x="471.672829" xlink:href="#me6f8346147" y="601.344648"/>
     <use style="fill:#dd8452;stroke:#ffffff;stroke-width:0.48;" x="480.330422" xlink:href="#me6f8346147" y="601.294695"/>
     <use style="fill:#dd8452;stroke:#ffffff;stroke-width:0.48;" x="489.091699" xlink:href="#me6f8346147" y="601.244742"/>
     <use style="fill:#dd8452;stroke:#ffffff;stroke-width:0.48;" x="497.956659" xlink:href="#me6f8346147" y="601.19479"/>
     <use style="fill:#dd8452;stroke:#ffffff;stroke-width:0.48;" x="506.925303" xlink:href="#me6f8346147" y="601.144837"/>
     <use style="fill:#dd8452;stroke:#ffffff;stroke-width:0.48;" x="515.997631" xlink:href="#me6f8346147" y="601.094884"/>
     <use style="fill:#dd8452;stroke:#ffffff;stroke-width:0.48;" x="525.173642" xlink:href="#me6f8346147" y="601.044932"/>
     <use style="fill:#dd8452;stroke:#ffffff;stroke-width:0.48;" x="534.453338" xlink:href="#me6f8346147" y="600.994979"/>
     <use style="fill:#dd8452;stroke:#ffffff;stroke-width:0.48;" x="543.836717" xlink:href="#me6f8346147" y="600.945026"/>
     <use style="fill:#dd8452;stroke:#ffffff;stroke-width:0.48;" x="553.323779" xlink:href="#me6f8346147" y="600.895074"/>
     <use style="fill:#dd8452;stroke:#ffffff;stroke-width:0.48;" x="562.914526" xlink:href="#me6f8346147" y="600.845121"/>
     <use style="fill:#dd8452;stroke:#ffffff;stroke-width:0.48;" x="572.608956" xlink:href="#me6f8346147" y="600.795168"/>
     <use style="fill:#dd8452;stroke:#ffffff;stroke-width:0.48;" x="582.40707" xlink:href="#me6f8346147" y="600.745216"/>
     <use style="fill:#dd8452;stroke:#ffffff;stroke-width:0.48;" x="592.308868" xlink:href="#me6f8346147" y="600.695263"/>
     <use style="fill:#dd8452;stroke:#ffffff;stroke-width:0.48;" x="602.314349" xlink:href="#me6f8346147" y="600.64531"/>
     <use style="fill:#dd8452;stroke:#ffffff;stroke-width:0.48;" x="612.423515" xlink:href="#me6f8346147" y="600.595358"/>
     <use style="fill:#dd8452;stroke:#ffffff;stroke-width:0.48;" x="622.636364" xlink:href="#me6f8346147" y="600.545405"/>
    </g>
   </g>
   <g id="patch_3">
    <path d="M 90 630 
L 90 86.4 
" style="fill:none;stroke:#ffffff;stroke-linecap:square;stroke-linejoin:miter;stroke-width:1.25;"/>
   </g>
   <g id="patch_4">
    <path d="M 648 630 
L 648 86.4 
" style="fill:none;stroke:#ffffff;stroke-linecap:square;stroke-linejoin:miter;stroke-width:1.25;"/>
   </g>
   <g id="patch_5">
    <path d="M 90 630 
L 648 630 
" style="fill:none;stroke:#ffffff;stroke-linecap:square;stroke-linejoin:miter;stroke-width:1.25;"/>
   </g>
   <g id="patch_6">
    <path d="M 90 86.4 
L 648 86.4 
" style="fill:none;stroke:#ffffff;stroke-linecap:square;stroke-linejoin:miter;stroke-width:1.25;"/>
   </g>
   <g id="legend_1">
    <g id="patch_7">
     <path d="M 97.7 127.491875 
L 181.435781 127.491875 
Q 183.635781 127.491875 183.635781 125.291875 
L 183.635781 94.1 
Q 183.635781 91.9 181.435781 91.9 
L 97.7 91.9 
Q 95.5 91.9 95.5 94.1 
L 95.5 125.291875 
Q 95.5 127.491875 97.7 127.491875 
z
" style="fill:#eaeaf2;opacity:0.8;stroke:#cccccc;stroke-linejoin:miter;"/>
    </g>
    <g id="PathCollection_3">
     <g>
      <use style="fill:#4c72b0;stroke:#ffffff;stroke-width:0.48;" x="110.9" xlink:href="#md756f9f3ba" y="101.770781"/>
     </g>
    </g>
    <g id="text_15">
     <!-- obtenido -->
     <g style="fill:#262626;" transform="translate(130.7 104.658281)scale(0.11 -0.11)">
      <use xlink:href="#DejaVuSans-6f"/>
      <use x="61.181641" xlink:href="#DejaVuSans-62"/>
      <use x="124.658203" xlink:href="#DejaVuSans-74"/>
      <use x="163.867188" xlink:href="#DejaVuSans-65"/>
      <use x="225.390625" xlink:href="#DejaVuSans-6e"/>
      <use x="288.769531" xlink:href="#DejaVuSans-69"/>
      <use x="316.552734" xlink:href="#DejaVuSans-64"/>
      <use x="380.029297" xlink:href="#DejaVuSans-6f"/>
     </g>
    </g>
    <g id="PathCollection_4">
     <g>
      <use style="fill:#dd8452;stroke:#ffffff;stroke-width:0.48;" x="110.9" xlink:href="#me6f8346147" y="117.916719"/>
     </g>
    </g>
    <g id="text_16">
     <!-- optimo -->
     <g style="fill:#262626;" transform="translate(130.7 120.804219)scale(0.11 -0.11)">
      <defs>
       <path d="M 1159 525 
L 1159 -1331 
L 581 -1331 
L 581 3500 
L 1159 3500 
L 1159 2969 
Q 1341 3281 1617 3432 
Q 1894 3584 2278 3584 
Q 2916 3584 3314 3078 
Q 3713 2572 3713 1747 
Q 3713 922 3314 415 
Q 2916 -91 2278 -91 
Q 1894 -91 1617 61 
Q 1341 213 1159 525 
z
M 3116 1747 
Q 3116 2381 2855 2742 
Q 2594 3103 2138 3103 
Q 1681 3103 1420 2742 
Q 1159 2381 1159 1747 
Q 1159 1113 1420 752 
Q 1681 391 2138 391 
Q 2594 391 2855 752 
Q 3116 1113 3116 1747 
z
" id="DejaVuSans-70" transform="scale(0.015625)"/>
       <path d="M 3328 2828 
Q 3544 3216 3844 3400 
Q 4144 3584 4550 3584 
Q 5097 3584 5394 3201 
Q 5691 2819 5691 2113 
L 5691 0 
L 5113 0 
L 5113 2094 
Q 5113 2597 4934 2840 
Q 4756 3084 4391 3084 
Q 3944 3084 3684 2787 
Q 3425 2491 3425 1978 
L 3425 0 
L 2847 0 
L 2847 2094 
Q 2847 2600 2669 2842 
Q 2491 3084 2119 3084 
Q 1678 3084 1418 2786 
Q 1159 2488 1159 1978 
L 1159 0 
L 581 0 
L 581 3500 
L 1159 3500 
L 1159 2956 
Q 1356 3278 1631 3431 
Q 1906 3584 2284 3584 
Q 2666 3584 2933 3390 
Q 3200 3197 3328 2828 
z
" id="DejaVuSans-6d" transform="scale(0.015625)"/>
      </defs>
      <use xlink:href="#DejaVuSans-6f"/>
      <use x="61.181641" xlink:href="#DejaVuSans-70"/>
      <use x="124.658203" xlink:href="#DejaVuSans-74"/>
      <use x="163.867188" xlink:href="#DejaVuSans-69"/>
      <use x="191.650391" xlink:href="#DejaVuSans-6d"/>
      <use x="289.0625" xlink:href="#DejaVuSans-6f"/>
     </g>
    </g>
   </g>
  </g>
 </g>
 <defs>
  <clipPath id="pd9b1d0eb44">
   <rect height="543.6" width="558" x="90" y="86.4"/>
  </clipPath>
 </defs>
</svg>
