<?xml version="1.0" encoding="utf-8" standalone="no"?>
<!DOCTYPE svg PUBLIC "-//W3C//DTD SVG 1.1//EN"
  "http://www.w3.org/Graphics/SVG/1.1/DTD/svg11.dtd">
<svg height="720pt" version="1.1" viewBox="0 0 720 720" width="720pt" xmlns="http://www.w3.org/2000/svg" xmlns:xlink="http://www.w3.org/1999/xlink">
 <metadata>
  <rdf:RDF xmlns:cc="http://creativecommons.org/ns#" xmlns:dc="http://purl.org/dc/elements/1.1/" xmlns:rdf="http://www.w3.org/1999/02/22-rdf-syntax-ns#">
   <cc:Work>
    <dc:type rdf:resource="http://purl.org/dc/dcmitype/StillImage"/>
    <dc:date>2021-06-10T21:04:49.976167</dc:date>
    <dc:format>image/svg+xml</dc:format>
    <dc:creator>
     <cc:Agent>
      <dc:title>Matplotlib v3.4.2, https://matplotlib.org/</dc:title>
     </cc:Agent>
    </dc:creator>
   </cc:Work>
  </rdf:RDF>
 </metadata>
 <defs>
  <style type="text/css">*{stroke-linecap:butt;stroke-linejoin:round;}</style>
 </defs>
 <g id="figure_1">
  <g id="patch_1">
   <path d="M 0 720 
L 720 720 
L 720 0 
L 0 0 
z
" style="fill:#ffffff;"/>
  </g>
  <g id="axes_1">
   <g id="patch_2">
    <path d="M 90 630 
L 648 630 
L 648 86.4 
L 90 86.4 
z
" style="fill:#eaeaf2;"/>
   </g>
   <g id="matplotlib.axis_1">
    <g id="xtick_1">
     <g id="line2d_1">
      <path clip-path="url(#p6a360daa98)" d="M 94.004785 630 
L 94.004785 86.4 
" style="fill:none;stroke:#ffffff;stroke-linecap:round;"/>
     </g>
     <g id="text_1">
      <!-- 0 -->
      <g style="fill:#262626;" transform="translate(90.50541 647.858281)scale(0.11 -0.11)">
       <defs>
        <path d="M 2034 4250 
Q 1547 4250 1301 3770 
Q 1056 3291 1056 2328 
Q 1056 1369 1301 889 
Q 1547 409 2034 409 
Q 2525 409 2770 889 
Q 3016 1369 3016 2328 
Q 3016 3291 2770 3770 
Q 2525 4250 2034 4250 
z
M 2034 4750 
Q 2819 4750 3233 4129 
Q 3647 3509 3647 2328 
Q 3647 1150 3233 529 
Q 2819 -91 2034 -91 
Q 1250 -91 836 529 
Q 422 1150 422 2328 
Q 422 3509 836 4129 
Q 1250 4750 2034 4750 
z
" id="DejaVuSans-30" transform="scale(0.015625)"/>
       </defs>
       <use xlink:href="#DejaVuSans-30"/>
      </g>
     </g>
    </g>
    <g id="xtick_2">
     <g id="line2d_2">
      <path clip-path="url(#p6a360daa98)" d="M 200.799043 630 
L 200.799043 86.4 
" style="fill:none;stroke:#ffffff;stroke-linecap:round;"/>
     </g>
     <g id="text_2">
      <!-- 20 -->
      <g style="fill:#262626;" transform="translate(193.800293 647.858281)scale(0.11 -0.11)">
       <defs>
        <path d="M 1228 531 
L 3431 531 
L 3431 0 
L 469 0 
L 469 531 
Q 828 903 1448 1529 
Q 2069 2156 2228 2338 
Q 2531 2678 2651 2914 
Q 2772 3150 2772 3378 
Q 2772 3750 2511 3984 
Q 2250 4219 1831 4219 
Q 1534 4219 1204 4116 
Q 875 4013 500 3803 
L 500 4441 
Q 881 4594 1212 4672 
Q 1544 4750 1819 4750 
Q 2544 4750 2975 4387 
Q 3406 4025 3406 3419 
Q 3406 3131 3298 2873 
Q 3191 2616 2906 2266 
Q 2828 2175 2409 1742 
Q 1991 1309 1228 531 
z
" id="DejaVuSans-32" transform="scale(0.015625)"/>
       </defs>
       <use xlink:href="#DejaVuSans-32"/>
       <use x="63.623047" xlink:href="#DejaVuSans-30"/>
      </g>
     </g>
    </g>
    <g id="xtick_3">
     <g id="line2d_3">
      <path clip-path="url(#p6a360daa98)" d="M 307.593301 630 
L 307.593301 86.4 
" style="fill:none;stroke:#ffffff;stroke-linecap:round;"/>
     </g>
     <g id="text_3">
      <!-- 40 -->
      <g style="fill:#262626;" transform="translate(300.594551 647.858281)scale(0.11 -0.11)">
       <defs>
        <path d="M 2419 4116 
L 825 1625 
L 2419 1625 
L 2419 4116 
z
M 2253 4666 
L 3047 4666 
L 3047 1625 
L 3713 1625 
L 3713 1100 
L 3047 1100 
L 3047 0 
L 2419 0 
L 2419 1100 
L 313 1100 
L 313 1709 
L 2253 4666 
z
" id="DejaVuSans-34" transform="scale(0.015625)"/>
       </defs>
       <use xlink:href="#DejaVuSans-34"/>
       <use x="63.623047" xlink:href="#DejaVuSans-30"/>
      </g>
     </g>
    </g>
    <g id="xtick_4">
     <g id="line2d_4">
      <path clip-path="url(#p6a360daa98)" d="M 414.38756 630 
L 414.38756 86.4 
" style="fill:none;stroke:#ffffff;stroke-linecap:round;"/>
     </g>
     <g id="text_4">
      <!-- 60 -->
      <g style="fill:#262626;" transform="translate(407.38881 647.858281)scale(0.11 -0.11)">
       <defs>
        <path d="M 2113 2584 
Q 1688 2584 1439 2293 
Q 1191 2003 1191 1497 
Q 1191 994 1439 701 
Q 1688 409 2113 409 
Q 2538 409 2786 701 
Q 3034 994 3034 1497 
Q 3034 2003 2786 2293 
Q 2538 2584 2113 2584 
z
M 3366 4563 
L 3366 3988 
Q 3128 4100 2886 4159 
Q 2644 4219 2406 4219 
Q 1781 4219 1451 3797 
Q 1122 3375 1075 2522 
Q 1259 2794 1537 2939 
Q 1816 3084 2150 3084 
Q 2853 3084 3261 2657 
Q 3669 2231 3669 1497 
Q 3669 778 3244 343 
Q 2819 -91 2113 -91 
Q 1303 -91 875 529 
Q 447 1150 447 2328 
Q 447 3434 972 4092 
Q 1497 4750 2381 4750 
Q 2619 4750 2861 4703 
Q 3103 4656 3366 4563 
z
" id="DejaVuSans-36" transform="scale(0.015625)"/>
       </defs>
       <use xlink:href="#DejaVuSans-36"/>
       <use x="63.623047" xlink:href="#DejaVuSans-30"/>
      </g>
     </g>
    </g>
    <g id="xtick_5">
     <g id="line2d_5">
      <path clip-path="url(#p6a360daa98)" d="M 521.181818 630 
L 521.181818 86.4 
" style="fill:none;stroke:#ffffff;stroke-linecap:round;"/>
     </g>
     <g id="text_5">
      <!-- 80 -->
      <g style="fill:#262626;" transform="translate(514.183068 647.858281)scale(0.11 -0.11)">
       <defs>
        <path d="M 2034 2216 
Q 1584 2216 1326 1975 
Q 1069 1734 1069 1313 
Q 1069 891 1326 650 
Q 1584 409 2034 409 
Q 2484 409 2743 651 
Q 3003 894 3003 1313 
Q 3003 1734 2745 1975 
Q 2488 2216 2034 2216 
z
M 1403 2484 
Q 997 2584 770 2862 
Q 544 3141 544 3541 
Q 544 4100 942 4425 
Q 1341 4750 2034 4750 
Q 2731 4750 3128 4425 
Q 3525 4100 3525 3541 
Q 3525 3141 3298 2862 
Q 3072 2584 2669 2484 
Q 3125 2378 3379 2068 
Q 3634 1759 3634 1313 
Q 3634 634 3220 271 
Q 2806 -91 2034 -91 
Q 1263 -91 848 271 
Q 434 634 434 1313 
Q 434 1759 690 2068 
Q 947 2378 1403 2484 
z
M 1172 3481 
Q 1172 3119 1398 2916 
Q 1625 2713 2034 2713 
Q 2441 2713 2670 2916 
Q 2900 3119 2900 3481 
Q 2900 3844 2670 4047 
Q 2441 4250 2034 4250 
Q 1625 4250 1398 4047 
Q 1172 3844 1172 3481 
z
" id="DejaVuSans-38" transform="scale(0.015625)"/>
       </defs>
       <use xlink:href="#DejaVuSans-38"/>
       <use x="63.623047" xlink:href="#DejaVuSans-30"/>
      </g>
     </g>
    </g>
    <g id="xtick_6">
     <g id="line2d_6">
      <path clip-path="url(#p6a360daa98)" d="M 627.976077 630 
L 627.976077 86.4 
" style="fill:none;stroke:#ffffff;stroke-linecap:round;"/>
     </g>
     <g id="text_6">
      <!-- 100 -->
      <g style="fill:#262626;" transform="translate(617.477952 647.858281)scale(0.11 -0.11)">
       <defs>
        <path d="M 794 531 
L 1825 531 
L 1825 4091 
L 703 3866 
L 703 4441 
L 1819 4666 
L 2450 4666 
L 2450 531 
L 3481 531 
L 3481 0 
L 794 0 
L 794 531 
z
" id="DejaVuSans-31" transform="scale(0.015625)"/>
       </defs>
       <use xlink:href="#DejaVuSans-31"/>
       <use x="63.623047" xlink:href="#DejaVuSans-30"/>
       <use x="127.246094" xlink:href="#DejaVuSans-30"/>
      </g>
     </g>
    </g>
    <g id="text_7">
     <!-- n -->
     <g style="fill:#262626;" transform="translate(365.1975 663.264063)scale(0.12 -0.12)">
      <defs>
       <path d="M 3513 2113 
L 3513 0 
L 2938 0 
L 2938 2094 
Q 2938 2591 2744 2837 
Q 2550 3084 2163 3084 
Q 1697 3084 1428 2787 
Q 1159 2491 1159 1978 
L 1159 0 
L 581 0 
L 581 3500 
L 1159 3500 
L 1159 2956 
Q 1366 3272 1645 3428 
Q 1925 3584 2291 3584 
Q 2894 3584 3203 3211 
Q 3513 2838 3513 2113 
z
" id="DejaVuSans-6e" transform="scale(0.015625)"/>
      </defs>
      <use xlink:href="#DejaVuSans-6e"/>
     </g>
    </g>
   </g>
   <g id="matplotlib.axis_2">
    <g id="ytick_1">
     <g id="line2d_7">
      <path clip-path="url(#p6a360daa98)" d="M 90 605.590625 
L 648 605.590625 
" style="fill:none;stroke:#ffffff;stroke-linecap:round;"/>
     </g>
     <g id="text_8">
      <!-- 0 -->
      <g style="fill:#262626;" transform="translate(73.50125 609.769766)scale(0.11 -0.11)">
       <use xlink:href="#DejaVuSans-30"/>
      </g>
     </g>
    </g>
    <g id="ytick_2">
     <g id="line2d_8">
      <path clip-path="url(#p6a360daa98)" d="M 90 505.685274 
L 648 505.685274 
" style="fill:none;stroke:#ffffff;stroke-linecap:round;"/>
     </g>
     <g id="text_9">
      <!-- 2000 -->
      <g style="fill:#262626;" transform="translate(52.505 509.864415)scale(0.11 -0.11)">
       <use xlink:href="#DejaVuSans-32"/>
       <use x="63.623047" xlink:href="#DejaVuSans-30"/>
       <use x="127.246094" xlink:href="#DejaVuSans-30"/>
       <use x="190.869141" xlink:href="#DejaVuSans-30"/>
      </g>
     </g>
    </g>
    <g id="ytick_3">
     <g id="line2d_9">
      <path clip-path="url(#p6a360daa98)" d="M 90 405.779923 
L 648 405.779923 
" style="fill:none;stroke:#ffffff;stroke-linecap:round;"/>
     </g>
     <g id="text_10">
      <!-- 4000 -->
      <g style="fill:#262626;" transform="translate(52.505 409.959064)scale(0.11 -0.11)">
       <use xlink:href="#DejaVuSans-34"/>
       <use x="63.623047" xlink:href="#DejaVuSans-30"/>
       <use x="127.246094" xlink:href="#DejaVuSans-30"/>
       <use x="190.869141" xlink:href="#DejaVuSans-30"/>
      </g>
     </g>
    </g>
    <g id="ytick_4">
     <g id="line2d_10">
      <path clip-path="url(#p6a360daa98)" d="M 90 305.874572 
L 648 305.874572 
" style="fill:none;stroke:#ffffff;stroke-linecap:round;"/>
     </g>
     <g id="text_11">
      <!-- 6000 -->
      <g style="fill:#262626;" transform="translate(52.505 310.053713)scale(0.11 -0.11)">
       <use xlink:href="#DejaVuSans-36"/>
       <use x="63.623047" xlink:href="#DejaVuSans-30"/>
       <use x="127.246094" xlink:href="#DejaVuSans-30"/>
       <use x="190.869141" xlink:href="#DejaVuSans-30"/>
      </g>
     </g>
    </g>
    <g id="ytick_5">
     <g id="line2d_11">
      <path clip-path="url(#p6a360daa98)" d="M 90 205.969222 
L 648 205.969222 
" style="fill:none;stroke:#ffffff;stroke-linecap:round;"/>
     </g>
     <g id="text_12">
      <!-- 8000 -->
      <g style="fill:#262626;" transform="translate(52.505 210.148362)scale(0.11 -0.11)">
       <use xlink:href="#DejaVuSans-38"/>
       <use x="63.623047" xlink:href="#DejaVuSans-30"/>
       <use x="127.246094" xlink:href="#DejaVuSans-30"/>
       <use x="190.869141" xlink:href="#DejaVuSans-30"/>
      </g>
     </g>
    </g>
    <g id="ytick_6">
     <g id="line2d_12">
      <path clip-path="url(#p6a360daa98)" d="M 90 106.063871 
L 648 106.063871 
" style="fill:none;stroke:#ffffff;stroke-linecap:round;"/>
     </g>
     <g id="text_13">
      <!-- 10000 -->
      <g style="fill:#262626;" transform="translate(45.50625 110.243011)scale(0.11 -0.11)">
       <use xlink:href="#DejaVuSans-31"/>
       <use x="63.623047" xlink:href="#DejaVuSans-30"/>
       <use x="127.246094" xlink:href="#DejaVuSans-30"/>
       <use x="190.869141" xlink:href="#DejaVuSans-30"/>
       <use x="254.492188" xlink:href="#DejaVuSans-30"/>
      </g>
     </g>
    </g>
    <g id="text_14">
     <!-- obtenido -->
     <g style="fill:#262626;" transform="translate(39.010625 384.674062)rotate(-90)scale(0.12 -0.12)">
      <defs>
       <path d="M 1959 3097 
Q 1497 3097 1228 2736 
Q 959 2375 959 1747 
Q 959 1119 1226 758 
Q 1494 397 1959 397 
Q 2419 397 2687 759 
Q 2956 1122 2956 1747 
Q 2956 2369 2687 2733 
Q 2419 3097 1959 3097 
z
M 1959 3584 
Q 2709 3584 3137 3096 
Q 3566 2609 3566 1747 
Q 3566 888 3137 398 
Q 2709 -91 1959 -91 
Q 1206 -91 779 398 
Q 353 888 353 1747 
Q 353 2609 779 3096 
Q 1206 3584 1959 3584 
z
" id="DejaVuSans-6f" transform="scale(0.015625)"/>
       <path d="M 3116 1747 
Q 3116 2381 2855 2742 
Q 2594 3103 2138 3103 
Q 1681 3103 1420 2742 
Q 1159 2381 1159 1747 
Q 1159 1113 1420 752 
Q 1681 391 2138 391 
Q 2594 391 2855 752 
Q 3116 1113 3116 1747 
z
M 1159 2969 
Q 1341 3281 1617 3432 
Q 1894 3584 2278 3584 
Q 2916 3584 3314 3078 
Q 3713 2572 3713 1747 
Q 3713 922 3314 415 
Q 2916 -91 2278 -91 
Q 1894 -91 1617 61 
Q 1341 213 1159 525 
L 1159 0 
L 581 0 
L 581 4863 
L 1159 4863 
L 1159 2969 
z
" id="DejaVuSans-62" transform="scale(0.015625)"/>
       <path d="M 1172 4494 
L 1172 3500 
L 2356 3500 
L 2356 3053 
L 1172 3053 
L 1172 1153 
Q 1172 725 1289 603 
Q 1406 481 1766 481 
L 2356 481 
L 2356 0 
L 1766 0 
Q 1100 0 847 248 
Q 594 497 594 1153 
L 594 3053 
L 172 3053 
L 172 3500 
L 594 3500 
L 594 4494 
L 1172 4494 
z
" id="DejaVuSans-74" transform="scale(0.015625)"/>
       <path d="M 3597 1894 
L 3597 1613 
L 953 1613 
Q 991 1019 1311 708 
Q 1631 397 2203 397 
Q 2534 397 2845 478 
Q 3156 559 3463 722 
L 3463 178 
Q 3153 47 2828 -22 
Q 2503 -91 2169 -91 
Q 1331 -91 842 396 
Q 353 884 353 1716 
Q 353 2575 817 3079 
Q 1281 3584 2069 3584 
Q 2775 3584 3186 3129 
Q 3597 2675 3597 1894 
z
M 3022 2063 
Q 3016 2534 2758 2815 
Q 2500 3097 2075 3097 
Q 1594 3097 1305 2825 
Q 1016 2553 972 2059 
L 3022 2063 
z
" id="DejaVuSans-65" transform="scale(0.015625)"/>
       <path d="M 603 3500 
L 1178 3500 
L 1178 0 
L 603 0 
L 603 3500 
z
M 603 4863 
L 1178 4863 
L 1178 4134 
L 603 4134 
L 603 4863 
z
" id="DejaVuSans-69" transform="scale(0.015625)"/>
       <path d="M 2906 2969 
L 2906 4863 
L 3481 4863 
L 3481 0 
L 2906 0 
L 2906 525 
Q 2725 213 2448 61 
Q 2172 -91 1784 -91 
Q 1150 -91 751 415 
Q 353 922 353 1747 
Q 353 2572 751 3078 
Q 1150 3584 1784 3584 
Q 2172 3584 2448 3432 
Q 2725 3281 2906 2969 
z
M 947 1747 
Q 947 1113 1208 752 
Q 1469 391 1925 391 
Q 2381 391 2643 752 
Q 2906 1113 2906 1747 
Q 2906 2381 2643 2742 
Q 2381 3103 1925 3103 
Q 1469 3103 1208 2742 
Q 947 2381 947 1747 
z
" id="DejaVuSans-64" transform="scale(0.015625)"/>
      </defs>
      <use xlink:href="#DejaVuSans-6f"/>
      <use x="61.181641" xlink:href="#DejaVuSans-62"/>
      <use x="124.658203" xlink:href="#DejaVuSans-74"/>
      <use x="163.867188" xlink:href="#DejaVuSans-65"/>
      <use x="225.390625" xlink:href="#DejaVuSans-6e"/>
      <use x="288.769531" xlink:href="#DejaVuSans-69"/>
      <use x="316.552734" xlink:href="#DejaVuSans-64"/>
      <use x="380.029297" xlink:href="#DejaVuSans-6f"/>
     </g>
    </g>
   </g>
   <g id="PathCollection_1">
    <defs>
     <path d="M 0 3 
C 0.795609 3 1.55874 2.683901 2.12132 2.12132 
C 2.683901 1.55874 3 0.795609 3 0 
C 3 -0.795609 2.683901 -1.55874 2.12132 -2.12132 
C 1.55874 -2.683901 0.795609 -3 0 -3 
C -0.795609 -3 -1.55874 -2.683901 -2.12132 -2.12132 
C -2.683901 -1.55874 -3 -0.795609 -3 0 
C -3 0.795609 -2.683901 1.55874 -2.12132 2.12132 
C -1.55874 2.683901 -0.795609 3 0 3 
z
" id="m91cb4453d8" style="stroke:#ffffff;stroke-width:0.48;"/>
    </defs>
    <g clip-path="url(#p6a360daa98)">
     <use style="fill:#4c72b0;stroke:#ffffff;stroke-width:0.48;" x="115.363636" xlink:href="#m91cb4453d8" y="604.641524"/>
     <use style="fill:#4c72b0;stroke:#ffffff;stroke-width:0.48;" x="120.703349" xlink:href="#m91cb4453d8" y="604.141998"/>
     <use style="fill:#4c72b0;stroke:#ffffff;stroke-width:0.48;" x="126.043062" xlink:href="#m91cb4453d8" y="603.542565"/>
     <use style="fill:#4c72b0;stroke:#ffffff;stroke-width:0.48;" x="131.382775" xlink:href="#m91cb4453d8" y="602.843228"/>
     <use style="fill:#4c72b0;stroke:#ffffff;stroke-width:0.48;" x="136.722488" xlink:href="#m91cb4453d8" y="602.043985"/>
     <use style="fill:#4c72b0;stroke:#ffffff;stroke-width:0.48;" x="142.062201" xlink:href="#m91cb4453d8" y="601.144837"/>
     <use style="fill:#4c72b0;stroke:#ffffff;stroke-width:0.48;" x="147.401914" xlink:href="#m91cb4453d8" y="600.145784"/>
     <use style="fill:#4c72b0;stroke:#ffffff;stroke-width:0.48;" x="152.741627" xlink:href="#m91cb4453d8" y="599.046825"/>
     <use style="fill:#4c72b0;stroke:#ffffff;stroke-width:0.48;" x="158.08134" xlink:href="#m91cb4453d8" y="597.84796"/>
     <use style="fill:#4c72b0;stroke:#ffffff;stroke-width:0.48;" x="163.421053" xlink:href="#m91cb4453d8" y="596.549191"/>
     <use style="fill:#4c72b0;stroke:#ffffff;stroke-width:0.48;" x="168.760766" xlink:href="#m91cb4453d8" y="595.150516"/>
     <use style="fill:#4c72b0;stroke:#ffffff;stroke-width:0.48;" x="174.100478" xlink:href="#m91cb4453d8" y="593.651936"/>
     <use style="fill:#4c72b0;stroke:#ffffff;stroke-width:0.48;" x="179.440191" xlink:href="#m91cb4453d8" y="592.05345"/>
     <use style="fill:#4c72b0;stroke:#ffffff;stroke-width:0.48;" x="184.779904" xlink:href="#m91cb4453d8" y="590.355059"/>
     <use style="fill:#4c72b0;stroke:#ffffff;stroke-width:0.48;" x="190.119617" xlink:href="#m91cb4453d8" y="588.556763"/>
     <use style="fill:#4c72b0;stroke:#ffffff;stroke-width:0.48;" x="195.45933" xlink:href="#m91cb4453d8" y="586.658561"/>
     <use style="fill:#4c72b0;stroke:#ffffff;stroke-width:0.48;" x="200.799043" xlink:href="#m91cb4453d8" y="584.660454"/>
     <use style="fill:#4c72b0;stroke:#ffffff;stroke-width:0.48;" x="206.138756" xlink:href="#m91cb4453d8" y="582.562442"/>
     <use style="fill:#4c72b0;stroke:#ffffff;stroke-width:0.48;" x="211.478469" xlink:href="#m91cb4453d8" y="580.364524"/>
     <use style="fill:#4c72b0;stroke:#ffffff;stroke-width:0.48;" x="216.818182" xlink:href="#m91cb4453d8" y="578.066701"/>
     <use style="fill:#4c72b0;stroke:#ffffff;stroke-width:0.48;" x="222.157895" xlink:href="#m91cb4453d8" y="575.668973"/>
     <use style="fill:#4c72b0;stroke:#ffffff;stroke-width:0.48;" x="227.497608" xlink:href="#m91cb4453d8" y="573.171339"/>
     <use style="fill:#4c72b0;stroke:#ffffff;stroke-width:0.48;" x="232.837321" xlink:href="#m91cb4453d8" y="570.5738"/>
     <use style="fill:#4c72b0;stroke:#ffffff;stroke-width:0.48;" x="238.177033" xlink:href="#m91cb4453d8" y="567.876355"/>
     <use style="fill:#4c72b0;stroke:#ffffff;stroke-width:0.48;" x="243.516746" xlink:href="#m91cb4453d8" y="565.079005"/>
     <use style="fill:#4c72b0;stroke:#ffffff;stroke-width:0.48;" x="248.856459" xlink:href="#m91cb4453d8" y="562.18175"/>
     <use style="fill:#4c72b0;stroke:#ffffff;stroke-width:0.48;" x="254.196172" xlink:href="#m91cb4453d8" y="559.18459"/>
     <use style="fill:#4c72b0;stroke:#ffffff;stroke-width:0.48;" x="259.535885" xlink:href="#m91cb4453d8" y="556.087524"/>
     <use style="fill:#4c72b0;stroke:#ffffff;stroke-width:0.48;" x="264.875598" xlink:href="#m91cb4453d8" y="552.890553"/>
     <use style="fill:#4c72b0;stroke:#ffffff;stroke-width:0.48;" x="270.215311" xlink:href="#m91cb4453d8" y="549.593676"/>
     <use style="fill:#4c72b0;stroke:#ffffff;stroke-width:0.48;" x="275.555024" xlink:href="#m91cb4453d8" y="546.196894"/>
     <use style="fill:#4c72b0;stroke:#ffffff;stroke-width:0.48;" x="280.894737" xlink:href="#m91cb4453d8" y="542.700207"/>
     <use style="fill:#4c72b0;stroke:#ffffff;stroke-width:0.48;" x="286.23445" xlink:href="#m91cb4453d8" y="539.103614"/>
     <use style="fill:#4c72b0;stroke:#ffffff;stroke-width:0.48;" x="291.574163" xlink:href="#m91cb4453d8" y="535.407116"/>
     <use style="fill:#4c72b0;stroke:#ffffff;stroke-width:0.48;" x="296.913876" xlink:href="#m91cb4453d8" y="531.610713"/>
     <use style="fill:#4c72b0;stroke:#ffffff;stroke-width:0.48;" x="302.253589" xlink:href="#m91cb4453d8" y="527.714404"/>
     <use style="fill:#4c72b0;stroke:#ffffff;stroke-width:0.48;" x="307.593301" xlink:href="#m91cb4453d8" y="523.71819"/>
     <use style="fill:#4c72b0;stroke:#ffffff;stroke-width:0.48;" x="312.933014" xlink:href="#m91cb4453d8" y="519.622071"/>
     <use style="fill:#4c72b0;stroke:#ffffff;stroke-width:0.48;" x="318.272727" xlink:href="#m91cb4453d8" y="515.426046"/>
     <use style="fill:#4c72b0;stroke:#ffffff;stroke-width:0.48;" x="323.61244" xlink:href="#m91cb4453d8" y="511.130116"/>
     <use style="fill:#4c72b0;stroke:#ffffff;stroke-width:0.48;" x="328.952153" xlink:href="#m91cb4453d8" y="506.73428"/>
     <use style="fill:#4c72b0;stroke:#ffffff;stroke-width:0.48;" x="334.291866" xlink:href="#m91cb4453d8" y="502.23854"/>
     <use style="fill:#4c72b0;stroke:#ffffff;stroke-width:0.48;" x="339.631579" xlink:href="#m91cb4453d8" y="497.642894"/>
     <use style="fill:#4c72b0;stroke:#ffffff;stroke-width:0.48;" x="344.971292" xlink:href="#m91cb4453d8" y="492.947342"/>
     <use style="fill:#4c72b0;stroke:#ffffff;stroke-width:0.48;" x="350.311005" xlink:href="#m91cb4453d8" y="488.151885"/>
     <use style="fill:#4c72b0;stroke:#ffffff;stroke-width:0.48;" x="355.650718" xlink:href="#m91cb4453d8" y="483.256523"/>
     <use style="fill:#4c72b0;stroke:#ffffff;stroke-width:0.48;" x="360.990431" xlink:href="#m91cb4453d8" y="478.261255"/>
     <use style="fill:#4c72b0;stroke:#ffffff;stroke-width:0.48;" x="366.330144" xlink:href="#m91cb4453d8" y="473.166083"/>
     <use style="fill:#4c72b0;stroke:#ffffff;stroke-width:0.48;" x="371.669856" xlink:href="#m91cb4453d8" y="467.971004"/>
     <use style="fill:#4c72b0;stroke:#ffffff;stroke-width:0.48;" x="377.009569" xlink:href="#m91cb4453d8" y="462.676021"/>
     <use style="fill:#4c72b0;stroke:#ffffff;stroke-width:0.48;" x="382.349282" xlink:href="#m91cb4453d8" y="457.281132"/>
     <use style="fill:#4c72b0;stroke:#ffffff;stroke-width:0.48;" x="387.688995" xlink:href="#m91cb4453d8" y="451.786337"/>
     <use style="fill:#4c72b0;stroke:#ffffff;stroke-width:0.48;" x="393.028708" xlink:href="#m91cb4453d8" y="446.191638"/>
     <use style="fill:#4c72b0;stroke:#ffffff;stroke-width:0.48;" x="398.368421" xlink:href="#m91cb4453d8" y="440.497033"/>
     <use style="fill:#4c72b0;stroke:#ffffff;stroke-width:0.48;" x="403.708134" xlink:href="#m91cb4453d8" y="434.702522"/>
     <use style="fill:#4c72b0;stroke:#ffffff;stroke-width:0.48;" x="409.047847" xlink:href="#m91cb4453d8" y="428.808107"/>
     <use style="fill:#4c72b0;stroke:#ffffff;stroke-width:0.48;" x="414.38756" xlink:href="#m91cb4453d8" y="422.813786"/>
     <use style="fill:#4c72b0;stroke:#ffffff;stroke-width:0.48;" x="419.727273" xlink:href="#m91cb4453d8" y="416.719559"/>
     <use style="fill:#4c72b0;stroke:#ffffff;stroke-width:0.48;" x="425.066986" xlink:href="#m91cb4453d8" y="410.525428"/>
     <use style="fill:#4c72b0;stroke:#ffffff;stroke-width:0.48;" x="430.406699" xlink:href="#m91cb4453d8" y="404.23139"/>
     <use style="fill:#4c72b0;stroke:#ffffff;stroke-width:0.48;" x="435.746411" xlink:href="#m91cb4453d8" y="397.837448"/>
     <use style="fill:#4c72b0;stroke:#ffffff;stroke-width:0.48;" x="441.086124" xlink:href="#m91cb4453d8" y="391.3436"/>
     <use style="fill:#4c72b0;stroke:#ffffff;stroke-width:0.48;" x="446.425837" xlink:href="#m91cb4453d8" y="384.749847"/>
     <use style="fill:#4c72b0;stroke:#ffffff;stroke-width:0.48;" x="451.76555" xlink:href="#m91cb4453d8" y="378.056188"/>
     <use style="fill:#4c72b0;stroke:#ffffff;stroke-width:0.48;" x="457.105263" xlink:href="#m91cb4453d8" y="371.262625"/>
     <use style="fill:#4c72b0;stroke:#ffffff;stroke-width:0.48;" x="462.444976" xlink:href="#m91cb4453d8" y="364.369155"/>
     <use style="fill:#4c72b0;stroke:#ffffff;stroke-width:0.48;" x="467.784689" xlink:href="#m91cb4453d8" y="357.375781"/>
     <use style="fill:#4c72b0;stroke:#ffffff;stroke-width:0.48;" x="473.124402" xlink:href="#m91cb4453d8" y="350.282501"/>
     <use style="fill:#4c72b0;stroke:#ffffff;stroke-width:0.48;" x="478.464115" xlink:href="#m91cb4453d8" y="343.089316"/>
     <use style="fill:#4c72b0;stroke:#ffffff;stroke-width:0.48;" x="483.803828" xlink:href="#m91cb4453d8" y="335.796225"/>
     <use style="fill:#4c72b0;stroke:#ffffff;stroke-width:0.48;" x="489.143541" xlink:href="#m91cb4453d8" y="328.403229"/>
     <use style="fill:#4c72b0;stroke:#ffffff;stroke-width:0.48;" x="494.483254" xlink:href="#m91cb4453d8" y="320.910328"/>
     <use style="fill:#4c72b0;stroke:#ffffff;stroke-width:0.48;" x="499.822967" xlink:href="#m91cb4453d8" y="313.317521"/>
     <use style="fill:#4c72b0;stroke:#ffffff;stroke-width:0.48;" x="505.162679" xlink:href="#m91cb4453d8" y="305.624809"/>
     <use style="fill:#4c72b0;stroke:#ffffff;stroke-width:0.48;" x="510.502392" xlink:href="#m91cb4453d8" y="297.832192"/>
     <use style="fill:#4c72b0;stroke:#ffffff;stroke-width:0.48;" x="515.842105" xlink:href="#m91cb4453d8" y="289.939669"/>
     <use style="fill:#4c72b0;stroke:#ffffff;stroke-width:0.48;" x="521.181818" xlink:href="#m91cb4453d8" y="281.947241"/>
     <use style="fill:#4c72b0;stroke:#ffffff;stroke-width:0.48;" x="526.521531" xlink:href="#m91cb4453d8" y="273.854908"/>
     <use style="fill:#4c72b0;stroke:#ffffff;stroke-width:0.48;" x="531.861244" xlink:href="#m91cb4453d8" y="265.662669"/>
     <use style="fill:#4c72b0;stroke:#ffffff;stroke-width:0.48;" x="537.200957" xlink:href="#m91cb4453d8" y="257.370525"/>
     <use style="fill:#4c72b0;stroke:#ffffff;stroke-width:0.48;" x="542.54067" xlink:href="#m91cb4453d8" y="248.978475"/>
     <use style="fill:#4c72b0;stroke:#ffffff;stroke-width:0.48;" x="547.880383" xlink:href="#m91cb4453d8" y="240.48652"/>
     <use style="fill:#4c72b0;stroke:#ffffff;stroke-width:0.48;" x="553.220096" xlink:href="#m91cb4453d8" y="231.89466"/>
     <use style="fill:#4c72b0;stroke:#ffffff;stroke-width:0.48;" x="558.559809" xlink:href="#m91cb4453d8" y="223.202895"/>
     <use style="fill:#4c72b0;stroke:#ffffff;stroke-width:0.48;" x="563.899522" xlink:href="#m91cb4453d8" y="214.411224"/>
     <use style="fill:#4c72b0;stroke:#ffffff;stroke-width:0.48;" x="569.239234" xlink:href="#m91cb4453d8" y="205.519648"/>
     <use style="fill:#4c72b0;stroke:#ffffff;stroke-width:0.48;" x="574.578947" xlink:href="#m91cb4453d8" y="196.528166"/>
     <use style="fill:#4c72b0;stroke:#ffffff;stroke-width:0.48;" x="579.91866" xlink:href="#m91cb4453d8" y="187.436779"/>
     <use style="fill:#4c72b0;stroke:#ffffff;stroke-width:0.48;" x="585.258373" xlink:href="#m91cb4453d8" y="178.245487"/>
     <use style="fill:#4c72b0;stroke:#ffffff;stroke-width:0.48;" x="590.598086" xlink:href="#m91cb4453d8" y="168.954289"/>
     <use style="fill:#4c72b0;stroke:#ffffff;stroke-width:0.48;" x="595.937799" xlink:href="#m91cb4453d8" y="159.563186"/>
     <use style="fill:#4c72b0;stroke:#ffffff;stroke-width:0.48;" x="601.277512" xlink:href="#m91cb4453d8" y="150.072178"/>
     <use style="fill:#4c72b0;stroke:#ffffff;stroke-width:0.48;" x="606.617225" xlink:href="#m91cb4453d8" y="140.481264"/>
     <use style="fill:#4c72b0;stroke:#ffffff;stroke-width:0.48;" x="611.956938" xlink:href="#m91cb4453d8" y="130.790445"/>
     <use style="fill:#4c72b0;stroke:#ffffff;stroke-width:0.48;" x="617.296651" xlink:href="#m91cb4453d8" y="120.999721"/>
     <use style="fill:#4c72b0;stroke:#ffffff;stroke-width:0.48;" x="622.636364" xlink:href="#m91cb4453d8" y="111.109091"/>
    </g>
   </g>
   <g id="PathCollection_2">
    <defs>
     <path d="M 0 3 
C 0.795609 3 1.55874 2.683901 2.12132 2.12132 
C 2.683901 1.55874 3 0.795609 3 0 
C 3 -0.795609 2.683901 -1.55874 2.12132 -2.12132 
C 1.55874 -2.683901 0.795609 -3 0 -3 
C -0.795609 -3 -1.55874 -2.683901 -2.12132 -2.12132 
C -2.683901 -1.55874 -3 -0.795609 -3 0 
C -3 0.795609 -2.683901 1.55874 -2.12132 2.12132 
C -1.55874 2.683901 -0.795609 3 0 3 
z
" id="m8a7dbbfcb9" style="stroke:#ffffff;stroke-width:0.48;"/>
    </defs>
    <g clip-path="url(#p6a360daa98)">
     <use style="fill:#dd8452;stroke:#ffffff;stroke-width:0.48;" x="115.363636" xlink:href="#m8a7dbbfcb9" y="605.290909"/>
     <use style="fill:#dd8452;stroke:#ffffff;stroke-width:0.48;" x="120.703349" xlink:href="#m8a7dbbfcb9" y="605.240956"/>
     <use style="fill:#dd8452;stroke:#ffffff;stroke-width:0.48;" x="126.043062" xlink:href="#m8a7dbbfcb9" y="605.191004"/>
     <use style="fill:#dd8452;stroke:#ffffff;stroke-width:0.48;" x="131.382775" xlink:href="#m8a7dbbfcb9" y="605.141051"/>
     <use style="fill:#dd8452;stroke:#ffffff;stroke-width:0.48;" x="136.722488" xlink:href="#m8a7dbbfcb9" y="605.091098"/>
     <use style="fill:#dd8452;stroke:#ffffff;stroke-width:0.48;" x="142.062201" xlink:href="#m8a7dbbfcb9" y="605.041146"/>
     <use style="fill:#dd8452;stroke:#ffffff;stroke-width:0.48;" x="147.401914" xlink:href="#m8a7dbbfcb9" y="604.991193"/>
     <use style="fill:#dd8452;stroke:#ffffff;stroke-width:0.48;" x="152.741627" xlink:href="#m8a7dbbfcb9" y="604.94124"/>
     <use style="fill:#dd8452;stroke:#ffffff;stroke-width:0.48;" x="158.08134" xlink:href="#m8a7dbbfcb9" y="604.891288"/>
     <use style="fill:#dd8452;stroke:#ffffff;stroke-width:0.48;" x="163.421053" xlink:href="#m8a7dbbfcb9" y="604.841335"/>
     <use style="fill:#dd8452;stroke:#ffffff;stroke-width:0.48;" x="168.760766" xlink:href="#m8a7dbbfcb9" y="604.791382"/>
     <use style="fill:#dd8452;stroke:#ffffff;stroke-width:0.48;" x="174.100478" xlink:href="#m8a7dbbfcb9" y="604.74143"/>
     <use style="fill:#dd8452;stroke:#ffffff;stroke-width:0.48;" x="179.440191" xlink:href="#m8a7dbbfcb9" y="604.691477"/>
     <use style="fill:#dd8452;stroke:#ffffff;stroke-width:0.48;" x="184.779904" xlink:href="#m8a7dbbfcb9" y="604.641524"/>
     <use style="fill:#dd8452;stroke:#ffffff;stroke-width:0.48;" x="190.119617" xlink:href="#m8a7dbbfcb9" y="604.591572"/>
     <use style="fill:#dd8452;stroke:#ffffff;stroke-width:0.48;" x="195.45933" xlink:href="#m8a7dbbfcb9" y="604.541619"/>
     <use style="fill:#dd8452;stroke:#ffffff;stroke-width:0.48;" x="200.799043" xlink:href="#m8a7dbbfcb9" y="604.491666"/>
     <use style="fill:#dd8452;stroke:#ffffff;stroke-width:0.48;" x="206.138756" xlink:href="#m8a7dbbfcb9" y="604.441714"/>
     <use style="fill:#dd8452;stroke:#ffffff;stroke-width:0.48;" x="211.478469" xlink:href="#m8a7dbbfcb9" y="604.391761"/>
     <use style="fill:#dd8452;stroke:#ffffff;stroke-width:0.48;" x="216.818182" xlink:href="#m8a7dbbfcb9" y="604.341808"/>
     <use style="fill:#dd8452;stroke:#ffffff;stroke-width:0.48;" x="222.157895" xlink:href="#m8a7dbbfcb9" y="604.291856"/>
     <use style="fill:#dd8452;stroke:#ffffff;stroke-width:0.48;" x="227.497608" xlink:href="#m8a7dbbfcb9" y="604.241903"/>
     <use style="fill:#dd8452;stroke:#ffffff;stroke-width:0.48;" x="232.837321" xlink:href="#m8a7dbbfcb9" y="604.19195"/>
     <use style="fill:#dd8452;stroke:#ffffff;stroke-width:0.48;" x="238.177033" xlink:href="#m8a7dbbfcb9" y="604.141998"/>
     <use style="fill:#dd8452;stroke:#ffffff;stroke-width:0.48;" x="243.516746" xlink:href="#m8a7dbbfcb9" y="604.092045"/>
     <use style="fill:#dd8452;stroke:#ffffff;stroke-width:0.48;" x="248.856459" xlink:href="#m8a7dbbfcb9" y="604.042092"/>
     <use style="fill:#dd8452;stroke:#ffffff;stroke-width:0.48;" x="254.196172" xlink:href="#m8a7dbbfcb9" y="603.99214"/>
     <use style="fill:#dd8452;stroke:#ffffff;stroke-width:0.48;" x="259.535885" xlink:href="#m8a7dbbfcb9" y="603.942187"/>
     <use style="fill:#dd8452;stroke:#ffffff;stroke-width:0.48;" x="264.875598" xlink:href="#m8a7dbbfcb9" y="603.892234"/>
     <use style="fill:#dd8452;stroke:#ffffff;stroke-width:0.48;" x="270.215311" xlink:href="#m8a7dbbfcb9" y="603.842282"/>
     <use style="fill:#dd8452;stroke:#ffffff;stroke-width:0.48;" x="275.555024" xlink:href="#m8a7dbbfcb9" y="603.792329"/>
     <use style="fill:#dd8452;stroke:#ffffff;stroke-width:0.48;" x="280.894737" xlink:href="#m8a7dbbfcb9" y="603.742376"/>
     <use style="fill:#dd8452;stroke:#ffffff;stroke-width:0.48;" x="286.23445" xlink:href="#m8a7dbbfcb9" y="603.692423"/>
     <use style="fill:#dd8452;stroke:#ffffff;stroke-width:0.48;" x="291.574163" xlink:href="#m8a7dbbfcb9" y="603.642471"/>
     <use style="fill:#dd8452;stroke:#ffffff;stroke-width:0.48;" x="296.913876" xlink:href="#m8a7dbbfcb9" y="603.592518"/>
     <use style="fill:#dd8452;stroke:#ffffff;stroke-width:0.48;" x="302.253589" xlink:href="#m8a7dbbfcb9" y="603.542565"/>
     <use style="fill:#dd8452;stroke:#ffffff;stroke-width:0.48;" x="307.593301" xlink:href="#m8a7dbbfcb9" y="603.492613"/>
     <use style="fill:#dd8452;stroke:#ffffff;stroke-width:0.48;" x="312.933014" xlink:href="#m8a7dbbfcb9" y="603.44266"/>
     <use style="fill:#dd8452;stroke:#ffffff;stroke-width:0.48;" x="318.272727" xlink:href="#m8a7dbbfcb9" y="603.392707"/>
     <use style="fill:#dd8452;stroke:#ffffff;stroke-width:0.48;" x="323.61244" xlink:href="#m8a7dbbfcb9" y="603.342755"/>
     <use style="fill:#dd8452;stroke:#ffffff;stroke-width:0.48;" x="328.952153" xlink:href="#m8a7dbbfcb9" y="603.292802"/>
     <use style="fill:#dd8452;stroke:#ffffff;stroke-width:0.48;" x="334.291866" xlink:href="#m8a7dbbfcb9" y="603.242849"/>
     <use style="fill:#dd8452;stroke:#ffffff;stroke-width:0.48;" x="339.631579" xlink:href="#m8a7dbbfcb9" y="603.192897"/>
     <use style="fill:#dd8452;stroke:#ffffff;stroke-width:0.48;" x="344.971292" xlink:href="#m8a7dbbfcb9" y="603.142944"/>
     <use style="fill:#dd8452;stroke:#ffffff;stroke-width:0.48;" x="350.311005" xlink:href="#m8a7dbbfcb9" y="603.092991"/>
     <use style="fill:#dd8452;stroke:#ffffff;stroke-width:0.48;" x="355.650718" xlink:href="#m8a7dbbfcb9" y="603.043039"/>
     <use style="fill:#dd8452;stroke:#ffffff;stroke-width:0.48;" x="360.990431" xlink:href="#m8a7dbbfcb9" y="602.993086"/>
     <use style="fill:#dd8452;stroke:#ffffff;stroke-width:0.48;" x="366.330144" xlink:href="#m8a7dbbfcb9" y="602.943133"/>
     <use style="fill:#dd8452;stroke:#ffffff;stroke-width:0.48;" x="371.669856" xlink:href="#m8a7dbbfcb9" y="602.893181"/>
     <use style="fill:#dd8452;stroke:#ffffff;stroke-width:0.48;" x="377.009569" xlink:href="#m8a7dbbfcb9" y="602.843228"/>
     <use style="fill:#dd8452;stroke:#ffffff;stroke-width:0.48;" x="382.349282" xlink:href="#m8a7dbbfcb9" y="602.793275"/>
     <use style="fill:#dd8452;stroke:#ffffff;stroke-width:0.48;" x="387.688995" xlink:href="#m8a7dbbfcb9" y="602.743323"/>
     <use style="fill:#dd8452;stroke:#ffffff;stroke-width:0.48;" x="393.028708" xlink:href="#m8a7dbbfcb9" y="602.69337"/>
     <use style="fill:#dd8452;stroke:#ffffff;stroke-width:0.48;" x="398.368421" xlink:href="#m8a7dbbfcb9" y="602.643417"/>
     <use style="fill:#dd8452;stroke:#ffffff;stroke-width:0.48;" x="403.708134" xlink:href="#m8a7dbbfcb9" y="602.593465"/>
     <use style="fill:#dd8452;stroke:#ffffff;stroke-width:0.48;" x="409.047847" xlink:href="#m8a7dbbfcb9" y="602.543512"/>
     <use style="fill:#dd8452;stroke:#ffffff;stroke-width:0.48;" x="414.38756" xlink:href="#m8a7dbbfcb9" y="602.493559"/>
     <use style="fill:#dd8452;stroke:#ffffff;stroke-width:0.48;" x="419.727273" xlink:href="#m8a7dbbfcb9" y="602.443607"/>
     <use style="fill:#dd8452;stroke:#ffffff;stroke-width:0.48;" x="425.066986" xlink:href="#m8a7dbbfcb9" y="602.393654"/>
     <use style="fill:#dd8452;stroke:#ffffff;stroke-width:0.48;" x="430.406699" xlink:href="#m8a7dbbfcb9" y="602.343701"/>
     <use style="fill:#dd8452;stroke:#ffffff;stroke-width:0.48;" x="435.746411" xlink:href="#m8a7dbbfcb9" y="602.293749"/>
     <use style="fill:#dd8452;stroke:#ffffff;stroke-width:0.48;" x="441.086124" xlink:href="#m8a7dbbfcb9" y="602.243796"/>
     <use style="fill:#dd8452;stroke:#ffffff;stroke-width:0.48;" x="446.425837" xlink:href="#m8a7dbbfcb9" y="602.193843"/>
     <use style="fill:#dd8452;stroke:#ffffff;stroke-width:0.48;" x="451.76555" xlink:href="#m8a7dbbfcb9" y="602.143891"/>
     <use style="fill:#dd8452;stroke:#ffffff;stroke-width:0.48;" x="457.105263" xlink:href="#m8a7dbbfcb9" y="602.093938"/>
     <use style="fill:#dd8452;stroke:#ffffff;stroke-width:0.48;" x="462.444976" xlink:href="#m8a7dbbfcb9" y="602.043985"/>
     <use style="fill:#dd8452;stroke:#ffffff;stroke-width:0.48;" x="467.784689" xlink:href="#m8a7dbbfcb9" y="601.994033"/>
     <use style="fill:#dd8452;stroke:#ffffff;stroke-width:0.48;" x="473.124402" xlink:href="#m8a7dbbfcb9" y="601.94408"/>
     <use style="fill:#dd8452;stroke:#ffffff;stroke-width:0.48;" x="478.464115" xlink:href="#m8a7dbbfcb9" y="601.894127"/>
     <use style="fill:#dd8452;stroke:#ffffff;stroke-width:0.48;" x="483.803828" xlink:href="#m8a7dbbfcb9" y="601.844174"/>
     <use style="fill:#dd8452;stroke:#ffffff;stroke-width:0.48;" x="489.143541" xlink:href="#m8a7dbbfcb9" y="601.794222"/>
     <use style="fill:#dd8452;stroke:#ffffff;stroke-width:0.48;" x="494.483254" xlink:href="#m8a7dbbfcb9" y="601.744269"/>
     <use style="fill:#dd8452;stroke:#ffffff;stroke-width:0.48;" x="499.822967" xlink:href="#m8a7dbbfcb9" y="601.694316"/>
     <use style="fill:#dd8452;stroke:#ffffff;stroke-width:0.48;" x="505.162679" xlink:href="#m8a7dbbfcb9" y="601.644364"/>
     <use style="fill:#dd8452;stroke:#ffffff;stroke-width:0.48;" x="510.502392" xlink:href="#m8a7dbbfcb9" y="601.594411"/>
     <use style="fill:#dd8452;stroke:#ffffff;stroke-width:0.48;" x="515.842105" xlink:href="#m8a7dbbfcb9" y="601.544458"/>
     <use style="fill:#dd8452;stroke:#ffffff;stroke-width:0.48;" x="521.181818" xlink:href="#m8a7dbbfcb9" y="601.494506"/>
     <use style="fill:#dd8452;stroke:#ffffff;stroke-width:0.48;" x="526.521531" xlink:href="#m8a7dbbfcb9" y="601.444553"/>
     <use style="fill:#dd8452;stroke:#ffffff;stroke-width:0.48;" x="531.861244" xlink:href="#m8a7dbbfcb9" y="601.3946"/>
     <use style="fill:#dd8452;stroke:#ffffff;stroke-width:0.48;" x="537.200957" xlink:href="#m8a7dbbfcb9" y="601.344648"/>
     <use style="fill:#dd8452;stroke:#ffffff;stroke-width:0.48;" x="542.54067" xlink:href="#m8a7dbbfcb9" y="601.294695"/>
     <use style="fill:#dd8452;stroke:#ffffff;stroke-width:0.48;" x="547.880383" xlink:href="#m8a7dbbfcb9" y="601.244742"/>
     <use style="fill:#dd8452;stroke:#ffffff;stroke-width:0.48;" x="553.220096" xlink:href="#m8a7dbbfcb9" y="601.19479"/>
     <use style="fill:#dd8452;stroke:#ffffff;stroke-width:0.48;" x="558.559809" xlink:href="#m8a7dbbfcb9" y="601.144837"/>
     <use style="fill:#dd8452;stroke:#ffffff;stroke-width:0.48;" x="563.899522" xlink:href="#m8a7dbbfcb9" y="601.094884"/>
     <use style="fill:#dd8452;stroke:#ffffff;stroke-width:0.48;" x="569.239234" xlink:href="#m8a7dbbfcb9" y="601.044932"/>
     <use style="fill:#dd8452;stroke:#ffffff;stroke-width:0.48;" x="574.578947" xlink:href="#m8a7dbbfcb9" y="600.994979"/>
     <use style="fill:#dd8452;stroke:#ffffff;stroke-width:0.48;" x="579.91866" xlink:href="#m8a7dbbfcb9" y="600.945026"/>
     <use style="fill:#dd8452;stroke:#ffffff;stroke-width:0.48;" x="585.258373" xlink:href="#m8a7dbbfcb9" y="600.895074"/>
     <use style="fill:#dd8452;stroke:#ffffff;stroke-width:0.48;" x="590.598086" xlink:href="#m8a7dbbfcb9" y="600.845121"/>
     <use style="fill:#dd8452;stroke:#ffffff;stroke-width:0.48;" x="595.937799" xlink:href="#m8a7dbbfcb9" y="600.795168"/>
     <use style="fill:#dd8452;stroke:#ffffff;stroke-width:0.48;" x="601.277512" xlink:href="#m8a7dbbfcb9" y="600.745216"/>
     <use style="fill:#dd8452;stroke:#ffffff;stroke-width:0.48;" x="606.617225" xlink:href="#m8a7dbbfcb9" y="600.695263"/>
     <use style="fill:#dd8452;stroke:#ffffff;stroke-width:0.48;" x="611.956938" xlink:href="#m8a7dbbfcb9" y="600.64531"/>
     <use style="fill:#dd8452;stroke:#ffffff;stroke-width:0.48;" x="617.296651" xlink:href="#m8a7dbbfcb9" y="600.595358"/>
     <use style="fill:#dd8452;stroke:#ffffff;stroke-width:0.48;" x="622.636364" xlink:href="#m8a7dbbfcb9" y="600.545405"/>
    </g>
   </g>
   <g id="patch_3">
    <path d="M 90 630 
L 90 86.4 
" style="fill:none;stroke:#ffffff;stroke-linecap:square;stroke-linejoin:miter;stroke-width:1.25;"/>
   </g>
   <g id="patch_4">
    <path d="M 648 630 
L 648 86.4 
" style="fill:none;stroke:#ffffff;stroke-linecap:square;stroke-linejoin:miter;stroke-width:1.25;"/>
   </g>
   <g id="patch_5">
    <path d="M 90 630 
L 648 630 
" style="fill:none;stroke:#ffffff;stroke-linecap:square;stroke-linejoin:miter;stroke-width:1.25;"/>
   </g>
   <g id="patch_6">
    <path d="M 90 86.4 
L 648 86.4 
" style="fill:none;stroke:#ffffff;stroke-linecap:square;stroke-linejoin:miter;stroke-width:1.25;"/>
   </g>
   <g id="legend_1">
    <g id="patch_7">
     <path d="M 97.7 127.491875 
L 181.435781 127.491875 
Q 183.635781 127.491875 183.635781 125.291875 
L 183.635781 94.1 
Q 183.635781 91.9 181.435781 91.9 
L 97.7 91.9 
Q 95.5 91.9 95.5 94.1 
L 95.5 125.291875 
Q 95.5 127.491875 97.7 127.491875 
z
" style="fill:#eaeaf2;opacity:0.8;stroke:#cccccc;stroke-linejoin:miter;"/>
    </g>
    <g id="PathCollection_3">
     <g>
      <use style="fill:#4c72b0;stroke:#ffffff;stroke-width:0.48;" x="110.9" xlink:href="#m91cb4453d8" y="101.770781"/>
     </g>
    </g>
    <g id="text_15">
     <!-- obtenido -->
     <g style="fill:#262626;" transform="translate(130.7 104.658281)scale(0.11 -0.11)">
      <use xlink:href="#DejaVuSans-6f"/>
      <use x="61.181641" xlink:href="#DejaVuSans-62"/>
      <use x="124.658203" xlink:href="#DejaVuSans-74"/>
      <use x="163.867188" xlink:href="#DejaVuSans-65"/>
      <use x="225.390625" xlink:href="#DejaVuSans-6e"/>
      <use x="288.769531" xlink:href="#DejaVuSans-69"/>
      <use x="316.552734" xlink:href="#DejaVuSans-64"/>
      <use x="380.029297" xlink:href="#DejaVuSans-6f"/>
     </g>
    </g>
    <g id="PathCollection_4">
     <g>
      <use style="fill:#dd8452;stroke:#ffffff;stroke-width:0.48;" x="110.9" xlink:href="#m8a7dbbfcb9" y="117.916719"/>
     </g>
    </g>
    <g id="text_16">
     <!-- optimo -->
     <g style="fill:#262626;" transform="translate(130.7 120.804219)scale(0.11 -0.11)">
      <defs>
       <path d="M 1159 525 
L 1159 -1331 
L 581 -1331 
L 581 3500 
L 1159 3500 
L 1159 2969 
Q 1341 3281 1617 3432 
Q 1894 3584 2278 3584 
Q 2916 3584 3314 3078 
Q 3713 2572 3713 1747 
Q 3713 922 3314 415 
Q 2916 -91 2278 -91 
Q 1894 -91 1617 61 
Q 1341 213 1159 525 
z
M 3116 1747 
Q 3116 2381 2855 2742 
Q 2594 3103 2138 3103 
Q 1681 3103 1420 2742 
Q 1159 2381 1159 1747 
Q 1159 1113 1420 752 
Q 1681 391 2138 391 
Q 2594 391 2855 752 
Q 3116 1113 3116 1747 
z
" id="DejaVuSans-70" transform="scale(0.015625)"/>
       <path d="M 3328 2828 
Q 3544 3216 3844 3400 
Q 4144 3584 4550 3584 
Q 5097 3584 5394 3201 
Q 5691 2819 5691 2113 
L 5691 0 
L 5113 0 
L 5113 2094 
Q 5113 2597 4934 2840 
Q 4756 3084 4391 3084 
Q 3944 3084 3684 2787 
Q 3425 2491 3425 1978 
L 3425 0 
L 2847 0 
L 2847 2094 
Q 2847 2600 2669 2842 
Q 2491 3084 2119 3084 
Q 1678 3084 1418 2786 
Q 1159 2488 1159 1978 
L 1159 0 
L 581 0 
L 581 3500 
L 1159 3500 
L 1159 2956 
Q 1356 3278 1631 3431 
Q 1906 3584 2284 3584 
Q 2666 3584 2933 3390 
Q 3200 3197 3328 2828 
z
" id="DejaVuSans-6d" transform="scale(0.015625)"/>
      </defs>
      <use xlink:href="#DejaVuSans-6f"/>
      <use x="61.181641" xlink:href="#DejaVuSans-70"/>
      <use x="124.658203" xlink:href="#DejaVuSans-74"/>
      <use x="163.867188" xlink:href="#DejaVuSans-69"/>
      <use x="191.650391" xlink:href="#DejaVuSans-6d"/>
      <use x="289.0625" xlink:href="#DejaVuSans-6f"/>
     </g>
    </g>
   </g>
  </g>
 </g>
 <defs>
  <clipPath id="p6a360daa98">
   <rect height="543.6" width="558" x="90" y="86.4"/>
  </clipPath>
 </defs>
</svg>
